<?xml version="1.0" encoding="UTF-8"?>
<svg width="31px" height="16px" viewBox="0 0 31 16" version="1.1" xmlns="http://www.w3.org/2000/svg" xmlns:xlink="http://www.w3.org/1999/xlink">
    <!-- Generator: Sketch 41.2 (35397) - http://www.bohemiancoding.com/sketch -->
    <title>3M</title>
    <desc>Created with Sketch.</desc>
    <defs></defs>
    <g id="Page-1" stroke="none" stroke-width="1" fill="none" fill-rule="evenodd">
        <g id="3M" fill="#EC1C24">
            <g id="Layer_1">
                <path d="M1,5.43 L5.2,5.43 C5.20526558,5.18548724 5.24567952,4.94300361 5.32,4.71 C5.67554901,3.93477745 6.468311,3.45515645 7.32,3.5 C8.32,3.5 9.21,3.94 9.17,4.94 C9.17,5.69 8.62,6.02 7.74,6.11 L5.74,6.11 L5.74,9 L7.24,9 C7.55586809,9.03656446 7.85976755,9.14241708 8.13,9.31 C8.77561179,9.64626157 9.11041987,10.378008 8.94277346,11.0863731 C8.77512706,11.7947381 8.14784666,12.2987903 7.42,12.31 C6.46908599,12.5046006 5.50686933,12.0317164 5.08,11.16 C4.88968817,10.6583694 4.79144778,10.1265163 4.79,9.59 L0.38,9.59 C0.38,13.66 2.69,15.93 6.98,15.92 C9.59,15.92 12.2,14.98 13.23,13.04 L13.23,12.95 L13.23,15.55 L17.68,15.55 L17.68,6.13 L20.04,15.55 L23.9,15.55 L26.32,6.14 L26.32,15.55 L30.71,15.55 L30.71,0.4 L24.13,0.4 L22,9.2 L19.83,0.4 L13.27,0.4 L13.27,3.48 C12.51,0.94 9.76,0.14 7.39,0.11 C3.1,0.1 1.17,1.95 1,5.43 Z M13.31,9.12 C12.9253571,8.49422135 12.4103235,7.95872279 11.8,7.55 C11.74,7.5 11.73,7.47 11.8,7.43 C12.2426943,7.17575888 12.6302501,6.83579772 12.94,6.43 C13.097197,6.21983031 13.2219226,5.98723383 13.31,5.74 L13.31,9.08 L13.31,9.12 Z" id="Shape"></path>
            </g>
        </g>
    </g>
</svg>