<?xml version="1.0" encoding="UTF-8"?>
<svg width="76px" height="16px" viewBox="0 0 76 16" version="1.1" xmlns="http://www.w3.org/2000/svg" xmlns:xlink="http://www.w3.org/1999/xlink">
    <!-- Generator: Sketch 41.2 (35397) - http://www.bohemiancoding.com/sketch -->
    <title>ASUS_BnG</title>
    <desc>Created with Sketch.</desc>
    <defs></defs>
    <g id="Page-1" stroke="none" stroke-width="1" fill="none" fill-rule="evenodd">
        <g id="ASUS_BnG" fill="#333333">
            <g id="Layer_1">
                <path d="M74.15,0.47 C74.4546234,0.473057448 74.7536645,0.552114276 75.02,0.7 C75.2996321,0.850960949 75.5290391,1.08036792 75.68,1.36 C75.9941318,1.90818696 75.9941318,2.58181304 75.68,3.13 C75.5281076,3.408937 75.298937,3.63810765 75.02,3.79 C74.471813,4.10413176 73.798187,4.10413176 73.25,3.79 C72.971063,3.63810765 72.7418924,3.408937 72.59,3.13 C72.2758682,2.58181304 72.2758682,1.90818696 72.59,1.36 C72.7441104,1.07930793 72.9770223,0.849872268 73.26,0.7 C73.5261756,0.551717278 73.8253194,0.472633268 74.13,0.47 L74.15,0.47 Z M74.15,0.76 C73.8945113,0.760556111 73.643341,0.825929192 73.42,0.95 C73.1877236,1.07680568 72.9968057,1.26772361 72.87,1.5 C72.6056235,1.95791359 72.6056235,2.52208641 72.87,2.98 C72.9972575,3.21193779 73.1880622,3.40274245 73.42,3.53 C73.8753655,3.79054483 74.4346345,3.79054483 74.89,3.53 C75.1219378,3.40274245 75.3127425,3.21193779 75.44,2.98 C75.702331,2.52154044 75.702331,1.95845956 75.44,1.5 C75.3136536,1.26738018 75.1226198,1.07634635 74.89,0.95 C74.6664967,0.826334846 74.4154326,0.760989379 74.16,0.76 L74.15,0.76 Z M73.37,3.23 L73.37,1.32 L74,1.32 C74.1649311,1.311436 74.3301979,1.32829997 74.49,1.37 C74.5871768,1.40281684 74.6712863,1.46589895 74.73,1.55 C74.7879634,1.63191572 74.8193789,1.72965281 74.82,1.83 C74.8223588,1.96859287 74.7682036,2.10217564 74.67,2.2 C74.5631566,2.30550168 74.420108,2.36629738 74.27,2.37 C74.3290888,2.39309173 74.3833505,2.42700533 74.43,2.47 C74.536751,2.58620918 74.6306295,2.71361567 74.71,2.85 L74.94,3.22 L74.6,3.22 L74.43,2.92 C74.3502915,2.75550445 74.2419342,2.60651319 74.11,2.48 C74.0367671,2.42952024 73.9487983,2.40488897 73.86,2.41 L73.68,2.41 L73.68,3.22 L73.37,3.23 Z M73.68,2.15 L74.05,2.15 C74.1786963,2.16324509 74.308271,2.13522893 74.42,2.07 C74.5270306,1.98086122 74.5486873,1.82493294 74.47,1.71 C74.4376195,1.66443797 74.3923434,1.62961019 74.34,1.61 C74.2372949,1.59388596 74.1327051,1.59388596 74.03,1.61 L73.68,1.61 L73.68,2.19 L73.68,2.15 Z" id="Shape"></path>
                <path d="M39.88,0.35 L39.94,0.35 L39.94,4.44 L35.81,4.44 L35.81,0.35 L39.88,0.35 Z M21.91,9 L31.46,9.59 C31.857645,9.59 32.18,9.91235498 32.18,10.31 L32.18,10.31 C32.18,10.707645 31.857645,11.03 31.46,11.03 L17.85,11.03 L17.85,5.71 C18.3835338,7.54687997 20.0024276,8.85874217 21.91,9 L21.91,9 Z M17.85,15.15 L31.76,15.15 C33.763111,15.1446795 35.4836914,13.7255146 35.87,11.76 C36.2084145,13.7084412 37.8924405,15.1356532 39.87,15.15 L48.76,15.15 C50.7218181,15.1400918 52.4002738,13.7385812 52.76,11.81 L52.76,15.15 L67,15.15 C69.3002092,15.150163 71.1726166,13.3000462 71.2,11 L71.2,10.41 C71.2079938,9.29090192 70.7690265,8.21489227 69.9805056,7.42073911 C69.1919847,6.62658595 68.1191266,6.17997145 67,6.18 L66.22,6.18 C61.8,6 57.38,5.73 53,5.5 C53.4466695,7.42636378 55.0888485,8.84203529 57.06,9 L66.71,9.59 C67.107645,9.59 67.43,9.91235498 67.43,10.31 L67.43,10.31 C67.43,10.707645 67.107645,11.03 66.71,11.03 L52.84,11.03 L52.84,5.49 L48.71,5.28 L48.71,10 C48.71,10.320912 48.5825182,10.6286802 48.3555992,10.8555992 C48.1286802,11.0825182 47.820912,11.21 47.5,11.21 L41.14,11.21 C40.475644,11.2045093 39.9399773,10.6643787 39.94,10 L39.94,4.83 L35.81,4.62 L35.81,9.31 C35.3156848,7.50709778 33.6794318,6.25536426 31.81,6.25 L13.58,5.07 L13.58,15.14 L17.85,15.14 L17.85,15.15 Z M35.15,4.45 L35.15,0.33 L21.91,0.33 C19.9885936,0.336526751 18.3166189,1.64610302 17.85,3.51 L17.85,0.35 L9.94,0.35 L7.25,4.44 L35.15,4.44 L35.15,4.45 Z M11.83,5 L5.3,15.14 L0.2,15.14 L7.08,4.69 L11.83,4.96 L11.83,5 Z M71.2,4.48 L71.2,0.33 L57.06,0.33 C54.7828812,0.340321162 52.9287725,2.1633802 52.88,4.44 L71.2,4.48 Z M48.7,4.48 L48.7,0.35 L52.83,0.35 L52.83,4.44 L48.7,4.48 Z" id="Shape"></path>
            </g>
        </g>
    </g>
</svg>