<svg xmlns="http://www.w3.org/2000/svg" viewBox="0 0 120 120"><defs><style>.cls-1{fill:#5db998;}.cls-2,.cls-6{fill:none;}.cls-2{stroke:#fff;stroke-miterlimit:10;}.cls-3{opacity:0.38;}.cls-4{fill:#f3e8e0;}.cls-4,.cls-5,.cls-6{stroke:#102b5e;}.cls-5{fill:#fff;}</style></defs><title>choose</title><g id="Layer_4" data-name="Layer 4"><path class="cls-1" d="M68.1,29.27A9.77,9.77,0,1,0,77.87,39,9.78,9.78,0,0,0,68.1,29.27Z"/><path id="Subtraction_5" data-name="Subtraction 5" class="cls-2" d="M85.47,58.57H50.74a2.17,2.17,0,0,1-2.17-2.17V21.67a2.17,2.17,0,0,1,2.17-2.17H85.47a2.17,2.17,0,0,1,2.17,2.17V56.4A2.17,2.17,0,0,1,85.47,58.57Z"/><g id="Group_212" data-name="Group 212" class="cls-3"><path id="Subtraction_3" data-name="Subtraction 3" class="cls-2" d="M41.31,58.8H7.82a2.68,2.68,0,0,1-2.67-2.67V22.31a2.68,2.68,0,0,1,2.67-2.67H41.31A2.68,2.68,0,0,1,44,22.31V56.13A2.66,2.66,0,0,1,41.31,58.8ZM24.82,29.13a1.52,1.52,0,0,0-1.07.44l-8.46,8.37a1.5,1.5,0,0,0,0,2.11v0l8.46,8.37a1.53,1.53,0,0,0,2.15,0l8.45-8.37a1.5,1.5,0,0,0,0-2.12h0L25.9,29.57A1.55,1.55,0,0,0,24.82,29.13Z"/><path id="Subtraction_2" data-name="Subtraction 2" class="cls-2" d="M84.15,103.07H51.38a2.67,2.67,0,0,1-2.67-2.67V66.58a2.66,2.66,0,0,1,2.67-2.67H84.15a2.66,2.66,0,0,1,2.67,2.67V100.4a2.68,2.68,0,0,1-2.67,2.67Zm-16-28.92A2.46,2.46,0,0,0,66,75.3L58.77,87.4a2.3,2.3,0,0,0,0,2.3A2.5,2.5,0,0,0,60.93,91H76a2.47,2.47,0,0,0,2.16-1.26,2.26,2.26,0,0,0,0-2.3L70.28,75.3A2.44,2.44,0,0,0,68.12,74.15Z"/><path id="Subtraction_4" data-name="Subtraction 4" class="cls-2" d="M41.45,103.07H8.68A2.67,2.67,0,0,1,6,100.4V66.58a2.67,2.67,0,0,1,2.67-2.67H41.45a2.67,2.67,0,0,1,2.67,2.67V100.4a2.68,2.68,0,0,1-2.67,2.67ZM18.16,74.12a1.94,1.94,0,0,0-1.94,1.95h0V89.21a1.94,1.94,0,0,0,1.94,1.94H31.31a1.94,1.94,0,0,0,1.94-1.94V76.07a1.94,1.94,0,0,0-1.94-1.94Z"/></g><g id="Path_632" data-name="Path 632"><path class="cls-4" d="M89.45,73.37a4.49,4.49,0,0,1-2.89-.28L71.85,66.5a2,2,0,0,1-1.09-2.31L71.08,63a4.33,4.33,0,0,1,3.22-3.1,4.75,4.75,0,0,1,2.25,0l7.89,2h.06a.17.17,0,0,0,.07-.09s0,0,0-.08L65.83,42h0a3.72,3.72,0,0,1,5.41-5.1l9.39,9.72h0a.88.88,0,0,0,.87.26l.12,0L92.8,42.59a3.75,3.75,0,0,1,.65-.2,4.8,4.8,0,0,1,5.45,2.7L104,56.36a4.59,4.59,0,0,1-1,5.22L91.55,72.26A4.55,4.55,0,0,1,89.45,73.37Z"/></g><g id="Rectangle_153" data-name="Rectangle 153"><rect class="cls-5" x="88.29" y="64.28" width="27.41" height="14.54" rx="3.67" transform="translate(-21.4 88.78) rotate(-43)"/></g><g id="Group_263" data-name="Group 263"><g id="Ellipse_88" data-name="Ellipse 88"><circle class="cls-6" cx="96.73" cy="76.77" r="2.45"/></g></g></g></svg>