<?xml version="1.0" encoding="UTF-8"?>
<svg width="44px" height="23px" viewBox="0 0 44 23" version="1.1" xmlns="http://www.w3.org/2000/svg" xmlns:xlink="http://www.w3.org/1999/xlink">
    <!-- Generator: Sketch 41.2 (35397) - http://www.bohemiancoding.com/sketch -->
    <title>DNB</title>
    <desc>Created with Sketch.</desc>
    <defs></defs>
    <g id="Page-1" stroke="none" stroke-width="1" fill="none" fill-rule="evenodd">
        <g id="DNB" fill="#007C84">
            <g id="Layer_1">
                <path d="M36.78,8.28 C36.8582053,7.65518862 36.5947047,7.03653491 36.09,6.66 C35.4551213,6.29942381 34.7285849,6.13256377 34,6.18 L31.25,6.18 L31.25,10.24 L34.9,10.24 C35.4230911,10.275747 35.9351119,10.0777428 36.2980532,9.69935718 C36.6609946,9.32097151 36.837502,8.8011484 36.78,8.28 Z" id="Shape"></path>
                <path d="M18.17,5.31 C18.1791908,5.16735274 18.2742026,5.04462918 18.41,5 L18.52,5 C18.6301651,5 18.733901,5.05186796 18.8,5.14 L26.27,14.66 L26.27,0.14 L0.93,0.14 L0.93,22.14 L18.17,22.14 L18.17,5.31 Z M12.63,16.79 C11.9492012,17.0603136 11.2224743,17.1961503 10.49,17.19 L7.19,17.19 C6.98565464,17.19 6.82,17.0243454 6.82,16.82 L6.82,5.42 C6.82,5.21565464 6.98565464,5.05 7.19,5.05 L10.49,5.05 C11.2224743,5.04384965 11.9492012,5.17968645 12.63,5.45 C13.3798084,5.7485062 14.040769,6.23389914 14.55,6.86 C15.4531283,8.12046446 15.923297,9.63974112 15.89,11.19 C15.9237459,12.6971144 15.4520159,14.1721507 14.55,15.38 C14.040769,16.0061009 13.3798084,16.4914938 12.63,16.79 L12.63,16.79 Z" id="Shape"></path>
                <path d="M13.67,7.57 C12.8788884,6.64979712 11.7128098,6.13848823 10.5,6.18 L8,6.18 L8,16.05 L10.49,16.05 C11.7028098,16.0915118 12.8688884,15.5802029 13.66,14.66 C14.3943663,13.6548639 14.7742364,12.4343554 14.74,11.19 C14.7709525,9.90109182 14.3967087,8.6349586 13.67,7.57 Z" id="Shape"></path>
                <path d="M27.4,0.14 L27.4,16.89 C27.3990277,17.0400796 27.3024789,17.1728343 27.16,17.22 L27.05,17.22 C26.9398349,17.22 26.836099,17.168132 26.77,17.08 L19.3,7.59 L19.3,22.1 L43.84,22.1 L43.84,0.1 L27.4,0.14 Z M38.4,15.22 C38.1740837,15.6903258 37.8294068,16.0935977 37.4,16.39 C36.5102301,16.9682603 35.4595567,17.2484399 34.4,17.19 L30.4,17.19 C30.3018699,17.19 30.207759,17.151018 30.1383705,17.0816295 C30.068982,17.012241 30.03,16.9181301 30.03,16.82 L30.03,5.42 C30.03,5.21565464 30.1956546,5.05 30.4,5.05 L34,5.05 C34.9723597,4.98923743 35.9397623,5.23021496 36.77,5.74 C37.5679267,6.33150568 38.0090428,7.28914224 37.94,8.28 C37.9733872,9.17318928 37.6067663,10.0347484 36.94,10.63 L36.89,10.63 L36.95,10.63 C37.1738426,10.7441165 37.3850128,10.8815447 37.58,11.04 C38.3140713,11.6320661 38.7375754,12.5269488 38.73,13.47 C38.7585018,14.0701248 38.6490306,14.6687954 38.41,15.22 L38.4,15.22 Z" id="Shape"></path>
                <path d="M34.91,11.37 L31.25,11.37 L31.25,16.05 L34.46,16.05 C37.61,16.05 37.61,14.17 37.61,13.55 C37.61,12.27 36.5,11.37 34.91,11.37 Z" id="Shape"></path>
            </g>
        </g>
    </g>
</svg>