<?xml version="1.0" encoding="UTF-8"?>
<svg width="63px" height="28px" viewBox="0 0 63 28" version="1.1" xmlns="http://www.w3.org/2000/svg" xmlns:xlink="http://www.w3.org/1999/xlink">
    <!-- Generator: Sketch 41.2 (35397) - http://www.bohemiancoding.com/sketch -->
    <title>DPD_BnG</title>
    <desc>Created with Sketch.</desc>
    <defs></defs>
    <g id="Page-1" stroke="none" stroke-width="1" fill="none" fill-rule="evenodd">
        <g id="DPD_BnG" fill="#000000">
            <g id="Layer_1">
                <path d="M12,0.53 L1.39,6.34 L13.21,13.22 C13.3339095,13.2831898 13.4196007,13.4024123 13.44,13.54 L13.44,23.68 C13.4338329,23.780303 13.3822977,23.8723301 13.3,23.93 L12.59,24.32 C12.4564274,24.3948073 12.2935726,24.3948073 12.16,24.32 L11.53,23.97 C11.4260126,23.9054078 11.3619746,23.7923995 11.36,23.67 L11.36,14.67 C11.36,14.51 11.19,14.44 11.07,14.37 L0.8,8.37 L0.8,20.37 C0.845832953,20.6612028 1.0178157,20.9173474 1.27,21.07 L12,27.37 C12.34,27.57 12.55,27.54 13,27.3 L23.54,21.08 C23.815032,20.9388148 23.999573,20.6676525 24.03,20.36 L24.03,8.36 L16.96,12.49 C16.8526318,12.5420019 16.7273682,12.5420019 16.62,12.49 L15.98,12.12 C15.8408791,12.0452969 15.7473996,11.9069473 15.73,11.75 L15.73,11 C15.7323334,10.8723111 15.7954985,10.753412 15.9,10.68 L23.46,6.28 L12.77,0.54 C12.5353607,0.448010025 12.2746393,0.448010025 12.04,0.54 L12,0.53 Z" id="Shape"></path>
                <path d="M40.88,20.36 L40.88,6.26 L38.24,6.26 L38.24,10.88 C37.5408688,10.6483946 36.8060155,10.5434156 36.07,10.57 C34.7598763,10.5804215 33.5084915,11.1150762 32.595311,12.0545623 C31.6821305,12.9940484 31.1832205,14.2601086 31.21,15.57 C31.28,19.13 33.38,20.57 36.67,20.82 C38.0878241,20.8246361 39.5011404,20.6601408 40.88,20.33 L40.88,20.36 Z M38.25,18.45 C37.674756,18.5408883 37.0915513,18.5710541 36.51,18.54 C34.77,18.26 33.94,17.37 33.92,15.82 C33.9,14.27 34.59,12.98 36.62,12.89 C37.1740034,12.9061428 37.7214679,13.0142839 38.24,13.21 L38.24,18.45 L38.25,18.45 Z" id="Shape"></path>
                <path d="M62.56,20.36 L62.56,6.26 L59.92,6.26 L59.92,10.88 C59.2208688,10.6483946 58.4860155,10.5434156 57.75,10.57 C56.4398763,10.5804215 55.1884915,11.1150762 54.275311,12.0545623 C53.3621305,12.9940484 52.8632205,14.2601086 52.89,15.57 C52.96,19.13 55.06,20.57 58.35,20.82 C59.7678241,20.8246361 61.1811404,20.6601408 62.56,20.33 L62.56,20.36 Z M59.93,18.45 C59.354756,18.5408883 58.7715513,18.5710541 58.19,18.54 C56.45,18.26 55.62,17.37 55.6,15.82 C55.58,14.27 56.27,12.98 58.3,12.89 C58.8540034,12.9061428 59.4014679,13.0142839 59.92,13.21 L59.92,18.45 L59.93,18.45 Z" id="Shape"></path>
                <path d="M42.36,11.4 L42.36,24.64 L45,24.64 L45,13.12 C45.5793899,13.0351536 46.1644516,12.9950351 46.75,13 C47.456943,12.9579154 48.1477294,13.2225429 48.6456178,13.7261763 C49.1435063,14.2298096 49.4001918,14.9235863 49.35,15.63 C49.4247461,16.5110927 49.0712456,17.3743781 48.4,17.95 C47.832479,18.3576773 47.1486749,18.5715853 46.45,18.56 L46.45,20.88 C47.6687074,20.940926 48.8776148,20.6343443 49.92,20 C51.309255,18.9754567 52.1086875,17.3354993 52.06,15.61 C51.97,12.47 50.2,10.68 46.6,10.61 C45.1491709,10.6199306 43.7123212,10.8944231 42.36,11.42 L42.36,11.4 Z" id="Shape"></path>
            </g>
        </g>
    </g>
</svg>