<?xml version="1.0" encoding="UTF-8"?>
<svg width="58px" height="29px" viewBox="0 0 58 29" version="1.1" xmlns="http://www.w3.org/2000/svg" xmlns:xlink="http://www.w3.org/1999/xlink">
    <!-- Generator: Sketch 41.2 (35397) - http://www.bohemiancoding.com/sketch -->
    <title>Eu</title>
    <desc>Created with Sketch.</desc>
    <defs></defs>
    <g id="Page-1" stroke="none" stroke-width="1" fill="none" fill-rule="evenodd">
        <g id="Eu">
            <g id="Layer_1">
                <path d="M0.19,10.58 C0.19,10.58 17.31,8.35 17.8,8.27 C18.4741617,8.15975877 19.1418176,8.01287449 19.8,7.83 C21.15331,7.46657723 22.4372699,6.88203758 23.6,6.1 C24.7573961,5.24017817 25.7963524,4.23148276 26.69,3.1 C27.378305,2.26658976 28.0193122,1.39522064 28.61,0.49 L28.61,0 C27.9427004,1.02710555 27.2042238,2.00617174 26.4,2.93 C25.4960816,3.96483804 24.4567117,4.87302534 23.31,5.63 C22.1849154,6.35156504 20.9482236,6.88205851 19.65,7.2 C18.9909408,7.3638616 18.323231,7.49072646 17.65,7.58 C17.18,7.65 16.65,7.7 16.22,7.75 L0.19,9.46 L0.19,10.58 Z" id="Shape" fill="#000000"></path>
                <path d="M23.15,7.69 C22.0031149,8.32472675 20.7599819,8.76725506 19.47,9 C18.89,9.12 18.25,9.22 17.52,9.3 L16.23,9.42 L15.53,9.48 C10.3,10 5.08,10.5 0.19,11 L0.19,12.12 C5.11,11.52 10.37,10.89 15.61,10.29 L16.31,10.21 L17.61,10 C18.36,9.9 19.01,9.78 19.61,9.65 C20.9565434,9.36143123 22.2468803,8.85475441 23.43,8.15 C24.5978594,7.38954579 25.6517279,6.46698998 26.56,5.41 C27.2941435,4.56113949 27.9818155,3.67317468 28.62,2.75 L28.62,2.36 C27.9128072,3.34342114 27.1411106,4.27881103 26.31,5.16 C25.3885502,6.14791016 24.3313007,6.99977044 23.17,7.69" id="Shape" fill="#000000"></path>
                <path d="M26.15,7.41 C25.1879566,8.31972292 24.0960229,9.08138039 22.91,9.67 C21.7380757,10.2243209 20.4916579,10.6049837 19.21,10.8 C18.63,10.9 18,10.98 17.28,11.04 L0.19,12.45 L0.19,13.57 L15.37,11.95 L17.37,11.74 C18.11,11.65 18.76,11.56 19.37,11.44 C20.7016082,11.2050715 21.9918468,10.7772378 23.2,10.17 C24.4086129,9.47163827 25.5127994,8.60646772 26.48,7.6 C27.2434394,6.81371748 27.9549406,5.97862222 28.61,5.1 L28.61,4.73 C27.858983,5.68428304 27.0366212,6.58018939 26.15,7.41" id="Shape" fill="#000000"></path>
                <path d="M22,13.21 C21.0403117,13.7879692 19.9574756,14.1306388 18.84,14.21 C17.98,14.3 17.1,14.35 16.25,14.39 L15,14.49 C12.42,14.64 9.89,14.8 7.3,14.97 L0.16,15.45 L0.16,16.57 L7.37,15.9 C9.7,15.69 12.37,15.45 15.05,15.23 L17,15.09 C17.75,15.03 18.36,14.97 18.93,14.9 C20.2342809,14.7511828 21.5164658,14.4490974 22.75,14 C23.9813594,13.4910035 25.1384534,12.8182745 26.19,12 C27.0514938,11.32571 27.8604906,10.5869154 28.61,9.79 L28.61,9.41 C27.8715549,10.1875883 27.0499656,10.8817475 26.16,11.48 C24.96,12.28 22.91,12.7 22.02,13.2" id="Shape" fill="#000000"></path>
                <path d="M22.38,15.33 C21.1683926,15.6729756 19.9255568,15.8940731 18.67,15.99 C18.1,16.04 17.48,16.08 16.78,16.11 L14.87,16.19 C10.12,16.41 5.4,16.66 0.19,16.94 L0.19,18.05 C5.19,17.66 10.04,17.28 14.91,16.94 L16.81,16.81 C17.55,16.81 18.15,16.71 18.73,16.64 C20.0191913,16.5108047 21.2922074,16.2528514 22.53,15.87 C23.7783824,15.4671964 24.9685345,14.9023785 26.07,14.19 C26.9609315,13.6115792 27.8066923,12.9663941 28.6,12.26 L28.6,12.26 C27.7340625,12.8675273 26.8094468,13.3867861 25.84,13.81 C24.7592772,14.473008 23.5959408,14.9907936 22.38,15.35" id="Shape" fill="#000000"></path>
                <path d="M22.21,17.18 C20.9931915,17.4554784 19.7556036,17.6294097 18.51,17.7 C17.95,17.7 17.36,17.77 16.63,17.79 L14.74,17.86 C9.97,18.04 5.14,18.25 0.2,18.47 L0.2,19.58 C5.11,19.24 9.92,18.91 14.78,18.58 L16.67,18.47 C17.41,18.47 18.01,18.38 18.57,18.33 C19.8449196,18.2277467 21.1092167,18.0203752 22.35,17.71 C23.6016301,17.384305 24.8101082,16.9109844 25.95,16.3 C26.8857753,15.7956571 27.7817086,15.2206551 28.63,14.58 L28.63,14.1 C27.7201643,14.7709039 26.7569495,15.3662241 25.75,15.88 C24.6316434,16.4448973 23.4499883,16.87459 22.23,17.16" id="Shape" fill="#000000"></path>
                <path d="M22,19 C20.7801268,19.2142788 19.5474538,19.3479018 18.31,19.4 L16.44,19.47 L0.19,19.91 L0.19,21 L14.64,20.24 L16.51,20.14 L18.39,20.03 C19.6498771,19.9428644 20.9026114,19.7724926 22.14,19.52 C23.3847767,19.2611877 24.6007519,18.8793112 25.77,18.38 C26.7437855,17.9577352 27.6861811,17.4664864 28.59,16.91 L28.59,16.46 C27.6290104,17.028756 26.626112,17.5235192 25.59,17.94 C24.4318427,18.4126425 23.2291392,18.7677583 22,19" id="Shape" fill="#000000"></path>
                <path d="M21.92,20.82 C19.928143,21.0468683 17.9247229,21.1570564 15.92,21.15 L14.55,21.15 L0.19,21.43 L0.19,22.54 L14.52,21.92 L15.88,21.86 C17.9212024,21.8168139 19.9580771,21.6531961 21.98,21.37 C23.2264802,21.1738106 24.4541729,20.8727415 25.65,20.47 C26.655767,20.1245329 27.637863,19.713656 28.59,19.24 L28.59,18.81 C27.5983601,19.2760524 26.5759683,19.6736492 25.53,20 C24.3510852,20.3646164 23.1434497,20.6288912 21.92,20.79" id="Shape" fill="#000000"></path>
                <path d="M21.8,22.65 C19.93,22.81 18.01,22.81 16.16,22.81 L14.43,22.81 C9.69,22.81 4.99,22.87 0.2,22.91 L0.2,24 C4.76,23.84 9.61,23.68 14.45,23.54 L16.18,23.54 C18.04,23.54 19.97,23.44 21.86,23.24 C23.0999306,23.1115894 24.3295193,22.8977479 25.54,22.6 C26.5830623,22.3305903 27.6083721,21.9966132 28.61,21.6 L28.61,21.19 C27.5710375,21.5678645 26.5088444,21.8785058 25.43,22.12 C24.2338174,22.3830433 23.0209531,22.5634694 21.8,22.66" id="Shape" fill="#000000"></path>
                <path d="M21.73,24.46 L19.15,24.46 L18.06,24.46 L14.37,24.46 L7,24.46 L0.19,24.46 L0.19,25.57 L7,25.37 C9.34,25.31 11.86,25.25 14.36,25.21 L18.04,25.21 C19.04,25.21 20.38,25.21 21.74,25.07 C23.1,24.93 24.27,24.85 25.42,24.67 C26.57,24.49 27.52,24.28 28.58,24 L28.58,23.61 C27.49,23.86 26.4,24.07 25.35,24.21 C24.3,24.35 23.01,24.47 21.7,24.52" id="Shape" fill="#000000"></path>
                <path d="M18,26.21 L14.33,26.21 C9.66,26.1 5,26 0.19,25.92 L0.19,27 C4.75,27 9.58,26.93 14.34,26.88 L18,26.86 C19.24,26.86 20.45,26.86 21.68,26.77 C23.9875958,26.7057393 26.2905021,26.5255119 28.58,26.23 L28.58,25.84 C26.2811006,26.080607 23.9714487,26.2040999 21.66,26.21 L17.99,26.21" id="Shape" fill="#000000"></path>
                <polygon id="Shape" fill="#000000" points="28.61 28.17 0.19 27.44 0.19 28.55 28.61 28.55"></polygon>
                <path d="M26,9.51 C25.0404511,10.3494947 23.9491777,11.0252058 22.77,11.51 C21.5424247,11.9442539 20.266237,12.2263586 18.97,12.35 C18.06,12.48 17.11,12.67 16.21,12.73 L15.09,12.81 L0.19,13.93 L0.19,15 L15.19,13.53 L17.13,13.35 C17.85,13.28 18.49,13.2 19.13,13.1 C20.4494555,12.9032202 21.7372147,12.5333677 22.96,12 C24.2068281,11.399033 25.3644783,10.628388 26.4,9.71 C27.1960423,8.9965781 27.9443224,8.23159525 28.64,7.42 L28.64,7.02 C27.8145709,7.90601667 26.9327324,8.7377507 26,9.51" id="Shape" fill="#000000"></path>
                <path d="M40.7,0 L46.7,9.64 C47.63,11.13 48.7,12.31 52.49,13.12 C56.28,13.93 58,14.34 58,14.34 L58,14.63 C58,14.63 55.6,14.12 52.5,13.43 C49.4,12.74 48.14,12.51 46.73,10.54 C45.52,8.9 40.7,2 40.7,2 L40.7,0 Z" id="Shape" fill="#000000"></path>
                <path d="M40.7,9.34 L46.7,15.62 C48.13,17.11 49.96,17.62 52.49,18.11 C55.02,18.6 58,19 58,19 L58,19.27 L52.53,18.35 C49.98,17.91 48.19,17.67 46.72,16.35 C45.41,15.14 40.72,10.76 40.72,10.76 L40.7,9.34 Z" id="Shape" fill="#000000"></path>
                <path d="M40.7,11.54 C40.7,11.54 45.13,15.65 46.7,17.05 C48.27,18.45 49.32,18.74 52.51,19.31 C55.7,19.88 57.97,20.23 57.97,20.23 L57.97,20.52 L52.5,19.63 C49.91,19.22 48.26,19.06 46.71,17.8 C44.92,16.35 40.71,12.88 40.71,12.88 L40.7,11.54 Z" id="Shape" fill="#000000"></path>
                <path d="M40.7,13.88 C40.7,13.88 45.76,17.88 46.7,18.59 C47.64,19.3 48.89,20.11 52.52,20.59 L57.96,21.37 L57.96,21.68 C57.96,21.68 54.7,21.21 52.52,20.93 C50.34,20.65 48.67,20.54 46.71,19.24 C44.75,17.94 40.71,15.08 40.71,15.08 L40.7,13.88 Z" id="Shape" fill="#000000"></path>
                <path d="M40.7,16.13 C40.7,16.13 45.77,19.51 46.7,20.04 C48.4454066,21.1346106 50.4344842,21.7804597 52.49,21.92 L57.93,22.61 L57.93,22.9 L52.47,22.31 C50.4424077,22.1985327 48.4618063,21.6565093 46.66,20.72 C44.88,19.72 40.66,17.28 40.66,17.28 L40.7,16.13 Z" id="Shape" fill="#000000"></path>
                <path d="M40.7,18.39 C40.7,18.39 45.18,20.83 46.7,21.59 C48.5176563,22.4821629 50.4903779,23.0152391 52.51,23.16 C55.11,23.47 57.97,23.77 57.97,23.77 L57.97,24 C57.97,24 55.33,23.72 52.51,23.45 C50.507644,23.4125832 48.5327026,22.9774842 46.7,22.17 C44.9,21.37 40.7,19.41 40.7,19.41 L40.7,18.39 Z" id="Shape" fill="#000000"></path>
                <path d="M40.7,20.67 C40.7,20.67 44.24,22.19 46.7,23.17 C48.5637908,23.8682656 50.5227641,24.2796163 52.51,24.39 L58,25 L58,25.27 C58,25.27 55.15,25.04 52.56,24.81 C50.5862772,24.7482374 48.6307963,24.4116658 46.75,23.81 C44.63,23.11 40.75,21.75 40.75,21.75 L40.7,20.67 Z" id="Shape" fill="#000000"></path>
                <path d="M40.7,23 C40.7,23 44.28,24.11 46.7,24.75 C48.6029535,25.2560044 50.5473774,25.5906729 52.51,25.75 C53.64,25.83 57.95,26.18 57.95,26.18 L57.95,26.44 L52.5,26 C50.5505374,25.9067473 48.609519,25.6829121 46.69,25.33 C45.11,24.98 40.69,23.93 40.69,23.93 L40.7,23 Z" id="Shape" fill="#000000"></path>
                <path d="M40.7,25.29 C40.7,25.29 43.63,25.79 46.7,26.29 C49.02,26.67 52.16,26.92 52.49,26.93 L57.95,27.3 L57.95,27.57 L52.5,27.3 C50.23,27.17 47.97,27.04 46.69,26.9 C43.82,26.6 40.69,26.2 40.69,26.2 L40.7,25.29 Z" id="Shape" fill="#000000"></path>
                <path d="M40.7,27.66 C40.7,27.66 45.31,27.83 46.7,27.86 C48.09,27.89 58,28.29 58,28.29 L58,28.56 L40.7,28.56 L40.7,27.66 Z" id="Shape" fill="#000000"></path>
                <path d="M52.5,14.41 C48.32,13.51 47.38,11.98 46.68,11.04 C45.98,10.1 40.68,2.37 40.68,2.37 L40.68,4.11 C40.89,4.38 45.41,10.3 46.68,11.94 C48.11,13.78 50.35,14.2 52.49,14.66 C54.63,15.12 58,15.75 58,15.75 L58,15.51 C58,15.51 53.62,14.65 52.54,14.41" id="Shape" fill="#000000"></path>
                <path d="M52.5,15.63 C49.07,14.96 47.68,13.87 46.68,12.56 C45.68,11.25 40.68,4.68 40.68,4.68 L40.68,6.34 C40.89,6.59 45.44,11.99 46.68,13.34 C48.11,14.97 50.09,15.4 52.5,15.84 L57.96,16.84 L57.96,16.6 C57.96,16.6 54.48,15.95 52.5,15.6" id="Shape" fill="#000000"></path>
                <path d="M52.5,16.9 C48.93,16.21 48.2,15.64 46.69,13.98 C45.74,12.98 40.89,7.22 40.69,6.98 L40.69,8.51 C40.69,8.51 45.22,13.34 46.69,14.77 C48.6,16.64 50.39,16.77 52.51,17.17 L57.97,18.17 L57.97,17.91 C57.97,17.91 53.97,17.19 52.51,16.91" id="Shape" fill="#000000"></path>
                <rect id="Rectangle-path" fill="#000000" x="12.11" y="12.01" width="24.67" height="16.65"></rect>
                <path d="M36.9,28.77 L12,28.77 L12,11.9 L36.9,11.9 L36.9,28.77 Z M36.68,12.12 L12.22,12.12 L12.22,28.55 L36.68,28.55 L36.68,12.12 Z" id="Shape" fill="#FFFFFF"></path>
                <polygon id="Shape" fill="#FFFFFF" points="24.72 14.27 25.59 14.27 24.89 14.81 25.16 15.68 24.46 15.15 23.77 15.68 24.04 14.81 23.34 14.27 24.2 14.27 24.46 13.43"></polygon>
                <polygon id="Shape" fill="#FFFFFF" points="24.75 25.38 25.62 25.38 24.92 25.9 25.19 26.73 24.5 26.22 23.8 26.73 24.07 25.9 23.37 25.38 24.23 25.38 24.5 24.57"></polygon>
                <polygon id="Shape" fill="#FFFFFF" points="27.5 24.64 28.36 24.64 27.67 25.16 27.94 25.99 27.24 25.48 26.55 25.99 26.82 25.16 26.11 24.64 26.98 24.64 27.24 23.83"></polygon>
                <polygon id="Shape" fill="#FFFFFF" points="27.5 15.01 28.36 15.01 27.67 15.53 27.94 16.36 27.24 15.85 26.55 16.36 26.82 15.53 26.11 15.01 26.98 15.01 27.24 14.2"></polygon>
                <polygon id="Shape" fill="#FFFFFF" points="29.54 17.05 30.4 17.05 29.7 17.57 29.98 18.4 29.28 17.89 28.59 18.4 28.86 17.57 28.16 17.05 29.02 17.05 29.28 16.24"></polygon>
                <polygon id="Shape" fill="#FFFFFF" points="29.54 22.63 30.4 22.63 29.7 23.15 29.98 23.98 29.28 23.47 28.59 23.98 28.86 23.15 28.16 22.63 29.02 22.63 29.28 21.82"></polygon>
                <polygon id="Shape" fill="#FFFFFF" points="30.3 19.8 31.17 19.8 30.47 20.32 30.74 21.15 30.05 20.64 29.35 21.15 29.62 20.32 28.92 19.8 29.78 19.8 30.05 18.99"></polygon>
                <polygon id="Shape" fill="#FFFFFF" points="21.92 15.02 22.79 15.02 22.09 15.54 22.36 16.37 21.66 15.86 20.97 16.37 21.24 15.54 20.54 15.02 21.4 15.02 21.66 14.21"></polygon>
                <polygon id="Shape" fill="#FFFFFF" points="19.94 17.06 20.8 17.06 20.11 17.58 20.38 18.41 19.68 17.9 18.99 18.41 19.26 17.58 18.55 17.06 19.42 17.06 19.68 16.25"></polygon>
                <polygon id="Shape" fill="#FFFFFF" points="19.2 19.8 20.07 19.8 19.37 20.33 19.64 21.16 18.95 20.65 18.25 21.16 18.52 20.33 17.82 19.8 18.68 19.8 18.95 19"></polygon>
                <polygon id="Shape" fill="#FFFFFF" points="19.94 22.64 20.8 22.64 20.11 23.16 20.38 23.99 19.68 23.48 18.99 23.99 19.26 23.16 18.55 22.64 19.42 22.64 19.68 21.83"></polygon>
                <polygon id="Shape" fill="#FFFFFF" points="21.95 24.65 22.81 24.65 22.12 25.17 22.39 26 21.69 25.49 21 26 21.27 25.17 20.57 24.65 21.43 24.65 21.69 23.84"></polygon>
                <path d="M0.19,10.58 C0.19,10.58 17.31,8.35 17.8,8.27 C18.474158,8.15973933 19.1418128,8.01285528 19.8,7.83 C21.15331,7.46657723 22.4372699,6.88203758 23.6,6.1 C24.7573961,5.24017817 25.7963524,4.23148276 26.69,3.1 C27.378388,2.26665447 28.0193987,1.39528058 28.61,0.49 L28.61,0 C27.9426735,1.02708673 27.2041983,2.00615108 26.4,2.93 C25.4960816,3.96483804 24.4567117,4.87302534 23.31,5.63 C22.1850019,6.35172799 20.9482821,6.88223346 19.65,7.2 C18.9909452,7.36388201 18.3232343,7.49074709 17.65,7.58 C17.18,7.65 16.65,7.7 16.22,7.75 L0.19,9.46 L0.19,10.58 Z" id="Shape" fill="#C5C4E0"></path>
                <path d="M23.15,7.69 C22.0031149,8.32472675 20.7599819,8.76725506 19.47,9 C18.89,9.12 18.25,9.22 17.52,9.3 L16.23,9.42 L15.53,9.48 C10.29,10 5.08,10.5 0.19,11 L0.19,12.12 C5.11,11.52 10.37,10.89 15.61,10.29 L16.31,10.21 L17.61,10 C18.36,9.9 19.01,9.78 19.61,9.65 C20.9565434,9.36143123 22.2468803,8.85475441 23.43,8.15 C24.5978594,7.38954579 25.6517279,6.46698998 26.56,5.41 C27.2941889,4.56117666 27.9818629,3.67320934 28.62,2.75 L28.62,2.36 C27.9128072,3.34342114 27.1411106,4.27881103 26.31,5.16 C25.3885502,6.14791016 24.3313007,6.99977044 23.17,7.69" id="Shape" fill="#C5C4E0"></path>
                <path d="M26.15,7.41 C25.1879566,8.31972292 24.0960229,9.08138039 22.91,9.67 C21.7380757,10.2243209 20.4916579,10.6049837 19.21,10.8 C18.63,10.9 18,10.98 17.28,11.04 L0.19,12.45 L0.19,13.57 L15.37,11.95 L17.37,11.74 C18.11,11.65 18.76,11.56 19.37,11.44 C20.7016082,11.2050715 21.9918468,10.7772378 23.2,10.17 C24.4086129,9.47163827 25.5127994,8.60646772 26.48,7.6 C27.2433768,6.81366055 27.9548744,5.97856947 28.61,5.1 L28.61,4.73 C27.858983,5.68428304 27.0366212,6.58018939 26.15,7.41" id="Shape" fill="#C5C4E0"></path>
                <path d="M22,13.21 C21.0403117,13.7879692 19.9574756,14.1306388 18.84,14.21 C17.98,14.3 17.1,14.35 16.25,14.39 L15,14.49 C12.42,14.64 9.89,14.8 7.3,14.97 L0.16,15.45 L0.16,16.57 L7.37,15.9 C9.7,15.69 12.37,15.45 15.05,15.23 L17,15.09 C17.75,15.03 18.36,14.97 18.93,14.9 C20.2342809,14.7511828 21.5164658,14.4490974 22.75,14 C23.9813594,13.4910035 25.1384534,12.8182745 26.19,12 C27.0514938,11.32571 27.8604906,10.5869154 28.61,9.79 L28.61,9.41 C27.8716103,10.1876471 27.0500142,10.8818119 26.16,11.48 C24.96,12.28 22.91,12.7 22.02,13.2" id="Shape" fill="#C5C4E0"></path>
                <path d="M22.38,15.33 C21.1683926,15.6729756 19.9255568,15.8940731 18.67,15.99 C18.1,16.04 17.48,16.08 16.78,16.11 L14.87,16.19 C10.12,16.41 5.4,16.66 0.19,16.94 L0.19,18.05 C5.19,17.66 10.04,17.28 14.91,16.94 L16.81,16.81 C17.55,16.81 18.15,16.71 18.73,16.64 C20.0191913,16.5108047 21.2922074,16.2528514 22.53,15.87 C23.7783824,15.4671964 24.9685345,14.9023785 26.07,14.19 C26.9609315,13.6115792 27.8066923,12.9663941 28.6,12.26 L28.6,12.26 C27.7339911,12.8674138 26.8093871,13.386666 25.84,13.81 C24.7592772,14.473008 23.5959408,14.9907936 22.38,15.35" id="Shape" fill="#C5C4E0"></path>
                <path d="M22.21,17.18 C20.9931915,17.4554784 19.7556036,17.6294097 18.51,17.7 C17.95,17.7 17.36,17.77 16.63,17.79 L14.74,17.86 C9.97,18.04 5.14,18.25 0.2,18.47 L0.2,19.58 C5.11,19.24 9.92,18.91 14.78,18.58 L16.67,18.47 C17.41,18.47 18.01,18.38 18.57,18.33 C19.8449252,18.227792 21.109226,18.0204199 22.35,17.71 C23.6016301,17.384305 24.8101082,16.9109844 25.95,16.3 C26.8857753,15.7956571 27.7817086,15.2206551 28.63,14.58 L28.63,14.1 C27.7201643,14.7709039 26.7569495,15.3662241 25.75,15.88 C24.6316434,16.4448973 23.4499883,16.87459 22.23,17.16" id="Shape" fill="#C5C4E0"></path>
                <path d="M22,19 C20.7801268,19.2142788 19.5474538,19.3479018 18.31,19.4 L16.44,19.47 L0.19,19.91 L0.19,21 L14.64,20.24 L16.51,20.14 L18.39,20.03 C19.6498771,19.9428644 20.9026114,19.7724926 22.14,19.52 C23.3847767,19.2611877 24.6007519,18.8793112 25.77,18.38 C26.7437855,17.9577352 27.6861811,17.4664864 28.59,16.91 L28.59,16.46 C27.6290104,17.028756 26.626112,17.5235192 25.59,17.94 C24.4318427,18.4126425 23.2291392,18.7677583 22,19" id="Shape" fill="#C5C4E0"></path>
                <path d="M21.92,20.82 C19.928143,21.0468683 17.9247229,21.1570564 15.92,21.15 L14.55,21.15 L0.19,21.43 L0.19,22.54 L14.52,21.92 L15.88,21.86 C17.9212024,21.8168139 19.9580771,21.6531961 21.98,21.37 C23.2264802,21.1738106 24.4541729,20.8727415 25.65,20.47 C26.655767,20.1245329 27.637863,19.713656 28.59,19.24 L28.59,18.81 C27.5983601,19.2760524 26.5759683,19.6736492 25.53,20 C24.3510974,20.3646627 23.143458,20.6289383 21.92,20.79" id="Shape" fill="#C5C4E0"></path>
                <path d="M21.8,22.65 C19.93,22.81 18.01,22.81 16.16,22.81 L14.43,22.81 C9.69,22.81 4.99,22.87 0.2,22.91 L0.2,24 C4.76,23.84 9.61,23.68 14.45,23.54 L16.18,23.54 C18.04,23.54 19.97,23.44 21.86,23.24 C23.0999481,23.1117157 24.3295455,22.8978727 25.54,22.6 C26.5830623,22.3305903 27.6083721,21.9966132 28.61,21.6 L28.61,21.19 C27.5710461,21.5678907 26.5088513,21.8785326 25.43,22.12 C24.2338174,22.3830433 23.0209531,22.5634694 21.8,22.66" id="Shape" fill="#C5C4E0"></path>
                <path d="M21.73,24.46 L19.15,24.46 L18.06,24.46 L14.37,24.46 L7,24.46 L0.19,24.46 L0.19,25.57 L7,25.37 C9.34,25.31 11.86,25.25 14.36,25.21 L18.04,25.21 C19.04,25.21 20.38,25.21 21.74,25.07 C23.1,24.93 24.27,24.85 25.42,24.67 C26.57,24.49 27.52,24.28 28.58,24 L28.58,23.61 C27.49,23.86 26.4,24.07 25.35,24.21 C24.3,24.35 23.01,24.47 21.7,24.52" id="Shape" fill="#C5C4E0"></path>
                <path d="M18,26.21 L14.33,26.21 C9.66,26.1 5,26 0.19,25.92 L0.19,27 C4.75,27 9.58,26.93 14.34,26.88 L18,26.86 C19.24,26.86 20.45,26.86 21.68,26.77 C23.9875958,26.7057393 26.2905021,26.5255119 28.58,26.23 L28.58,25.84 C26.2811006,26.080607 23.9714487,26.2040999 21.66,26.21 L17.99,26.21" id="Shape" fill="#C5C4E0"></path>
                <polygon id="Shape" fill="#C5C4E0" points="28.61 28.17 0.19 27.44 0.19 28.55 28.61 28.55"></polygon>
                <path d="M26,9.51 C25.0404511,10.3494947 23.9491777,11.0252058 22.77,11.51 C21.5424247,11.9442539 20.266237,12.2263586 18.97,12.35 C18.06,12.48 17.11,12.67 16.21,12.73 L15.09,12.81 L0.19,13.93 L0.19,15 L15.19,13.53 L17.13,13.35 C17.85,13.28 18.49,13.2 19.13,13.1 C20.4494555,12.9032202 21.7372147,12.5333677 22.96,12 C24.2068281,11.399033 25.3644783,10.628388 26.4,9.71 C27.1960622,8.99659896 27.9443437,8.23161475 28.64,7.42 L28.64,7.02 C27.8145709,7.90601667 26.9327324,8.7377507 26,9.51" id="Shape" fill="#C5C4E0"></path>
                <path d="M40.7,0 L46.7,9.64 C47.63,11.13 48.7,12.31 52.49,13.12 C56.28,13.93 58,14.34 58,14.34 L58,14.63 C58,14.63 55.6,14.12 52.5,13.43 C49.4,12.74 48.14,12.51 46.73,10.54 C45.52,8.9 40.7,2 40.7,2 L40.7,0 Z" id="Shape" fill="#C5C4E0"></path>
                <path d="M40.7,9.34 L46.7,15.62 C48.13,17.11 49.96,17.62 52.49,18.11 C55.02,18.6 58,19 58,19 L58,19.27 C58,19.27 55.13,18.8 52.53,18.35 C49.93,17.9 48.19,17.67 46.72,16.35 C45.41,15.14 40.72,10.76 40.72,10.76 L40.7,9.34 Z" id="Shape" fill="#C5C4E0"></path>
                <path d="M40.7,11.54 C40.7,11.54 45.13,15.65 46.7,17.05 C48.27,18.45 49.32,18.74 52.51,19.31 C55.7,19.88 57.97,20.23 57.97,20.23 L57.97,20.52 L52.5,19.63 C49.91,19.22 48.26,19.06 46.71,17.8 C44.92,16.35 40.71,12.88 40.71,12.88 L40.7,11.54 Z" id="Shape" fill="#C5C4E0"></path>
                <path d="M40.7,13.88 C40.7,13.88 45.76,17.88 46.7,18.59 C47.64,19.3 48.9,20.11 52.52,20.59 L57.96,21.37 L57.96,21.68 C57.96,21.68 54.7,21.21 52.52,20.93 C50.34,20.65 48.67,20.54 46.71,19.24 C44.75,17.94 40.71,15.08 40.71,15.08 L40.7,13.88 Z" id="Shape" fill="#C5C4E0"></path>
                <path d="M40.7,16.13 C40.7,16.13 45.77,19.51 46.7,20.04 C48.4454066,21.1346106 50.4344842,21.7804597 52.49,21.92 L57.93,22.61 L57.93,22.9 L52.47,22.31 C50.442457,22.1982292 48.4619184,21.656223 46.66,20.72 C44.88,19.72 40.66,17.28 40.66,17.28 L40.7,16.13 Z" id="Shape" fill="#C5C4E0"></path>
                <path d="M40.7,18.39 C40.7,18.39 45.18,20.83 46.7,21.59 C48.5176563,22.4821629 50.4903779,23.0152391 52.51,23.16 C55.11,23.47 57.97,23.77 57.97,23.77 L57.97,24 C57.97,24 55.33,23.72 52.51,23.45 C50.507644,23.4125832 48.5327026,22.9774842 46.7,22.17 C44.9,21.37 40.7,19.41 40.7,19.41 L40.7,18.39 Z" id="Shape" fill="#C5C4E0"></path>
                <path d="M40.7,20.67 C40.7,20.67 44.24,22.19 46.7,23.17 C48.5637908,23.8682656 50.5227641,24.2796163 52.51,24.39 L58,25 L58,25.27 C58,25.27 55.15,25.04 52.56,24.81 C50.5862772,24.7482374 48.6307963,24.4116658 46.75,23.81 C44.63,23.11 40.75,21.75 40.75,21.75 L40.7,20.67 Z" id="Shape" fill="#C5C4E0"></path>
                <path d="M40.7,23 C40.7,23 44.28,24.11 46.7,24.75 C48.6029535,25.2560044 50.5473774,25.5906729 52.51,25.75 C53.64,25.83 57.95,26.18 57.95,26.18 L57.95,26.44 L52.5,26 C50.5505374,25.9067473 48.609519,25.6829121 46.69,25.33 C45.11,24.98 40.69,23.93 40.69,23.93 L40.7,23 Z" id="Shape" fill="#C5C4E0"></path>
                <path d="M40.7,25.29 C40.7,25.29 43.63,25.79 46.7,26.29 C49.02,26.67 52.16,26.92 52.49,26.93 L57.95,27.3 L57.95,27.57 L52.5,27.3 C50.23,27.17 47.97,27.04 46.69,26.9 C43.82,26.6 40.69,26.2 40.69,26.2 L40.7,25.29 Z" id="Shape" fill="#C5C4E0"></path>
                <path d="M40.7,27.66 C40.7,27.66 45.31,27.83 46.7,27.86 C48.09,27.89 58,28.29 58,28.29 L58,28.56 L40.7,28.56 L40.7,27.66 Z" id="Shape" fill="#C5C4E0"></path>
                <path d="M52.5,14.41 C48.32,13.51 47.38,11.98 46.68,11.04 C45.98,10.1 40.68,2.37 40.68,2.37 L40.68,4.11 C40.89,4.38 45.41,10.3 46.68,11.94 C48.11,13.78 50.35,14.2 52.49,14.66 C54.63,15.12 58,15.75 58,15.75 L58,15.51 C58,15.51 53.62,14.65 52.54,14.41" id="Shape" fill="#C5C4E0"></path>
                <path d="M52.5,15.63 C49.07,14.96 47.68,13.87 46.68,12.56 C45.68,11.25 40.68,4.68 40.68,4.68 L40.68,6.34 C40.89,6.59 45.44,11.99 46.68,13.34 C48.11,14.97 50.09,15.4 52.5,15.84 L57.96,16.84 L57.96,16.6 C57.96,16.6 54.48,15.95 52.5,15.6" id="Shape" fill="#C5C4E0"></path>
                <path d="M52.5,16.9 C48.93,16.21 48.2,15.64 46.69,13.98 C45.74,12.98 40.89,7.22 40.69,6.98 L40.69,8.51 C40.69,8.51 45.22,13.34 46.69,14.77 C48.6,16.64 50.39,16.77 52.51,17.17 L57.97,18.17 L57.97,17.91 C57.97,17.91 53.97,17.19 52.51,16.91" id="Shape" fill="#C5C4E0"></path>
                <rect id="Rectangle-path" fill="#39499B" x="12" y="11.9" width="24.89" height="16.65"></rect>
                <polygon id="Shape" fill="#FFFFFF" points="24.72 14.27 25.59 14.27 24.89 14.81 25.16 15.68 24.46 15.15 23.77 15.68 24.04 14.81 23.34 14.27 24.2 14.27 24.46 13.43"></polygon>
                <polygon id="Shape" fill="#FFFFFF" points="24.75 25.38 25.62 25.38 24.92 25.9 25.19 26.73 24.5 26.22 23.8 26.73 24.07 25.9 23.37 25.38 24.23 25.38 24.5 24.57"></polygon>
                <polygon id="Shape" fill="#FFFFFF" points="27.5 24.64 28.36 24.64 27.66 25.16 27.94 25.99 27.24 25.48 26.55 25.99 26.82 25.16 26.11 24.64 26.98 24.64 27.24 23.83"></polygon>
                <polygon id="Shape" fill="#FFFFFF" points="27.5 15.01 28.36 15.01 27.66 15.54 27.94 16.36 27.24 15.85 26.55 16.36 26.82 15.54 26.11 15.01 26.98 15.01 27.24 14.2"></polygon>
                <polygon id="Shape" fill="#FFFFFF" points="29.54 17.05 30.4 17.05 29.7 17.57 29.98 18.4 29.28 17.89 28.59 18.4 28.86 17.57 28.16 17.05 29.02 17.05 29.28 16.24"></polygon>
                <polygon id="Shape" fill="#FFFFFF" points="29.54 22.63 30.4 22.63 29.7 23.15 29.98 23.98 29.28 23.47 28.59 23.98 28.86 23.15 28.16 22.63 29.02 22.63 29.28 21.82"></polygon>
                <polygon id="Shape" fill="#FFFFFF" points="30.3 19.8 31.17 19.8 30.47 20.32 30.74 21.15 30.05 20.64 29.35 21.15 29.62 20.32 28.92 19.8 29.78 19.8 30.05 18.99"></polygon>
                <polygon id="Shape" fill="#FFFFFF" points="21.92 15.02 22.78 15.02 22.09 15.54 22.36 16.37 21.66 15.86 20.97 16.37 21.24 15.54 20.54 15.02 21.4 15.02 21.66 14.21"></polygon>
                <polygon id="Shape" fill="#FFFFFF" points="19.94 17.06 20.8 17.06 20.11 17.58 20.38 18.41 19.68 17.9 18.99 18.41 19.26 17.58 18.55 17.06 19.42 17.06 19.68 16.25"></polygon>
                <polygon id="Shape" fill="#FFFFFF" points="19.2 19.8 20.07 19.8 19.37 20.33 19.64 21.16 18.94 20.65 18.25 21.16 18.52 20.33 17.82 19.8 18.68 19.8 18.94 19"></polygon>
                <polygon id="Shape" fill="#FFFFFF" points="19.94 22.64 20.8 22.64 20.11 23.16 20.38 23.99 19.68 23.48 18.99 23.99 19.26 23.16 18.55 22.64 19.42 22.64 19.68 21.83"></polygon>
                <polygon id="Shape" fill="#FFFFFF" points="21.95 24.65 22.81 24.65 22.11 25.17 22.39 26 21.69 25.49 21 26 21.27 25.17 20.57 24.65 21.43 24.65 21.69 23.84"></polygon>
            </g>
        </g>
    </g>
</svg>