<svg xmlns="http://www.w3.org/2000/svg" width="86.211" height="44.799" viewBox="0 0 86.211 44.799"><g transform="translate(-241.55 -2094.025)"><path d="M30.091,48.173V6.993A6.993,6.993,0,0,1,23.1,0H6.992A6.992,6.992,0,0,1,0,6.993v41.18a6.991,6.991,0,0,1,6.992,6.992H23.1A6.992,6.992,0,0,1,30.091,48.173Z" transform="translate(312.649 2100.67) rotate(90)" fill="rgba(93,185,152,0.47)" stroke="#5db998" stroke-linejoin="round" stroke-width="2"/><circle cx="7.562" cy="7.562" r="7.562" transform="translate(292.629 2108.152) rotate(90)" fill="#fff6f0" stroke="#5db998" stroke-linejoin="round" stroke-width="2"/><circle cx="3.131" cy="3.131" r="3.131" transform="translate(305.679 2112.584) rotate(90)" fill="#fff6f0" stroke="#5db998" stroke-linejoin="round" stroke-width="2"/><circle cx="3.131" cy="3.131" r="3.131" transform="translate(271.096 2112.584) rotate(90)" fill="#fff6f0" stroke="#5db998" stroke-linejoin="round" stroke-width="2"/><path d="M17392.457-1259.875l-4.645,4.646-4.65-4.646" transform="translate(-17066.109 3369.077)" fill="none" stroke="#5db998" stroke-linecap="round" stroke-linejoin="round" stroke-width="2"/><path d="M10.319,0,5.163,5.159,0,0" transform="translate(253.283 2124.16) rotate(180)" fill="none" stroke="#5db998" stroke-linecap="round" stroke-linejoin="round" stroke-width="2"/><path d="M27.649,33.365H80.89A3.833,3.833,0,0,1,84.723,37.2V51.892" transform="translate(236.924 2061.66)" fill="none" stroke="#5db998" stroke-miterlimit="10" stroke-width="2"/><path d="M84.723,33.365H31.483A3.833,3.833,0,0,0,27.649,37.2V51.892" transform="translate(220.577 2061.66)" fill="none" stroke="#5db998" stroke-linecap="round" stroke-miterlimit="10" stroke-width="2"/><path d="M0,0H52.547A3.833,3.833,0,0,1,56.38,3.833V18.527" transform="translate(304.559 2137.824) rotate(180)" fill="none" stroke="#5db998" stroke-miterlimit="10" stroke-width="2"/><path d="M0,18.527H52.546a3.833,3.833,0,0,0,3.833-3.833V0" transform="translate(265.617 2119.297)" fill="none" stroke="#5db998" stroke-linecap="round" stroke-miterlimit="10" stroke-width="2"/></g></svg>