<svg xmlns="http://www.w3.org/2000/svg" width="51" height="69" viewBox="0 0 51 69"><g transform="translate(-260 -2198)"><g transform="translate(260 2198)" fill="#fff" stroke="#5db998" stroke-width="2" opacity="0.425"><ellipse cx="25.5" cy="24.5" rx="25.5" ry="24.5" stroke="none"/><ellipse cx="25.5" cy="24.5" rx="24.5" ry="23.5" fill="none"/></g><g transform="translate(260 2218)" fill="#fff" stroke="#5db998" stroke-width="2" opacity="0.425"><ellipse cx="25.5" cy="24.5" rx="25.5" ry="24.5" stroke="none"/><ellipse cx="25.5" cy="24.5" rx="24.5" ry="23.5" fill="none"/></g><g transform="translate(262.357 2217.797)" fill="#d0ebe1"><path d="M 23.11921310424805 29.45920372009277 C 18.32273292541504 29.45920372009277 13.68587207794189 28.03568267822266 9.709922790527344 25.34253311157227 C 5.948379516601562 22.79461479187012 2.976927757263184 19.26053810119629 1.094919204711914 15.10281562805176 C 2.975764989852905 11.02085876464844 5.944746494293213 7.550994396209717 9.703342437744141 5.048282623291016 C 13.68075275421143 2.399872779846191 18.31988334655762 1.000002861022949 23.11921310424805 1.000002861022949 C 27.91820335388184 1.000002861022949 32.55707168579102 2.399872779846191 36.53433227539062 5.048272609710693 C 40.29282379150391 7.551003932952881 43.2617301940918 11.02087783813477 45.14254379272461 15.10282516479492 C 43.26055908203125 19.26053810119629 40.28918838500977 22.79460525512695 36.52775192260742 25.34254264831543 C 32.55195236206055 28.03568267822266 27.91536331176758 29.45920372009277 23.11921310424805 29.45920372009277 Z" stroke="none"/><path d="M 23.11921310424805 2.000001907348633 C 18.51776313781738 2.000001907348633 14.07028198242188 3.341903686523438 10.25758361816406 5.880641937255859 C 6.781463623046875 8.195255279541016 4.009613037109375 11.37263488769531 2.199161529541016 15.10667896270752 C 4.012016296386719 18.91586112976074 6.788494110107422 22.15586090087891 10.27073287963867 24.51459312438965 C 14.08051300048828 27.09517288208008 18.5234432220459 28.45920181274414 23.11921310424805 28.45920181274414 C 27.71464157104492 28.45920181274414 32.15731048583984 27.09518241882324 35.96692276000977 24.51460266113281 C 39.44906616210938 22.15586090087891 42.22548294067383 18.91585540771484 44.03831100463867 15.10668087005615 C 42.22787475585938 11.37264442443848 39.45609664916992 8.195253372192383 35.98008346557617 5.880622863769531 C 32.16754150390625 3.341903686523438 27.72032165527344 2.000001907348633 23.11921310424805 2.000001907348633 M 23.11921310424805 1.9073486328125e-06 C 33.45093154907227 1.9073486328125e-06 42.33306121826172 6.209362030029297 46.23746109008789 15.09927272796631 C 42.33306121826172 24.14256286621094 33.45093154907227 30.45920372009277 23.11921310424805 30.45920372009277 C 12.78677368164062 30.45920372009277 3.904441833496094 24.14256286621094 3.814697265625e-06 15.09927272796631 C 3.904441833496094 6.209362030029297 12.78677368164062 1.9073486328125e-06 23.11921310424805 1.9073486328125e-06 Z" stroke="none" fill="#5db998"/></g><g transform="translate(279 2226)" fill="#fff" stroke="#5db998" stroke-width="2"><rect width="13" height="14" rx="6.5" stroke="none"/><rect x="1" y="1" width="11" height="12" rx="5.5" fill="none"/></g></g></svg>