<svg xmlns="http://www.w3.org/2000/svg" width="59" height="52" viewBox="0 0 59 52"><g transform="translate(-256 -2346)"><g transform="translate(282 2353)" fill="none" stroke="#5db998" stroke-width="2" opacity="0.633"><rect width="33" height="39" rx="3" stroke="none"/><rect x="1" y="1" width="31" height="37" rx="2" fill="none"/></g><g transform="translate(256 2353)" fill="none" stroke="#5db998" stroke-width="2" opacity="0.633"><rect width="33" height="39" rx="3" stroke="none"/><rect x="1" y="1" width="31" height="37" rx="2" fill="none"/></g><g transform="translate(268 2346)" fill="#d0ebe1" stroke="#5db998" stroke-width="2"><rect width="35" height="52" rx="3" stroke="none"/><rect x="1" y="1" width="33" height="50" rx="2" fill="none"/></g><path d="M-6.986,6.418l2,4.064a.681.681,0,0,0,.516.375l4.483.652A.685.685,0,0,1,.4,12.677L-2.848,15.84a.684.684,0,0,0-.2.605l.767,4.466a.685.685,0,0,1-.995.722l-4.009-2.109a.694.694,0,0,0-.64,0l-4.009,2.109a.685.685,0,0,1-.995-.722l.767-4.466a.684.684,0,0,0-.2-.605L-15.6,12.677a.685.685,0,0,1,.38-1.169l4.483-.652a.681.681,0,0,0,.516-.375l2-4.064A.687.687,0,0,1-6.986,6.418Z" transform="translate(293.403 2358.445)" fill="#fff" stroke="#5db998" stroke-miterlimit="10" stroke-width="2"/></g></svg>