<svg xmlns="http://www.w3.org/2000/svg" width="66" height="65" viewBox="0 0 66 65"><g transform="translate(-252 -1945)"><g transform="translate(252 1945)" fill="none" stroke="#5db998" stroke-width="2" opacity="0.593"><circle cx="25" cy="25" r="25" stroke="none"/><circle cx="25" cy="25" r="24" fill="none"/></g><g transform="translate(277 1969)" fill="none" stroke="#5db998" stroke-width="2" opacity="0.697"><rect width="41" height="41" rx="4" stroke="none"/><rect x="1" y="1" width="39" height="39" rx="3" fill="none"/></g><g transform="translate(277 1969)" fill="#b3decf"><path d="M 0.9981998801231384 24.97902297973633 L 0.9981998801231384 3.999600410461426 C 0.9981998801231384 2.345610380172729 2.343809843063354 1.000000357627869 3.997799873352051 1.000000357627869 L 24.00005340576172 1.000000357627869 C 24.00015068054199 1.027890205383301 24.00020027160645 1.05577027797699 24.00020027160645 1.083600401878357 C 24.00020027160645 4.312090396881104 23.36586952209473 7.443550586700439 22.11483955383301 10.39100074768066 C 20.90617942810059 13.23862075805664 19.17563056945801 15.7963399887085 16.97123908996582 17.99311065673828 C 14.76661968231201 20.19011116027832 12.19960975646973 21.91493034362793 9.341509819030762 23.11967086791992 C 6.687944412231445 24.23818588256836 3.886029005050659 24.86219024658203 0.9981998801231384 24.97902297973633 Z" stroke="none"/><path d="M 3.997798919677734 2 C 2.895219802856445 2 1.998199462890625 2.89702033996582 1.998199462890625 3.999601364135742 L 1.998199462890625 23.91449165344238 C 4.398876190185547 23.70983505249023 6.730506896972656 23.13504028320312 8.953090667724609 22.19819068908691 C 11.69209003448486 21.04365158081055 14.15228939056396 19.39054107666016 16.26535987854004 17.28478050231934 C 18.37796020507812 15.1794900894165 20.03630065917969 12.72863006591797 21.1943302154541 10.0002908706665 C 22.27391815185547 7.456766128540039 22.87403297424316 4.769626617431641 22.98233222961426 2 L 3.997798919677734 2 M 3.997798919677734 0 L 24.9769401550293 0 C 24.99234962463379 0.3590602874755859 25.00020027160645 0.7207603454589844 25.00020027160645 1.083600997924805 C 25.00020027160645 14.84370040893555 13.80599975585938 25.99920082092285 -0.001800537109375 25.99920082092285 L -0.001800537109375 3.999601364135742 C -0.001800537109375 1.791000366210938 1.788299560546875 0 3.997798919677734 0 Z" stroke="none" fill="#5db998"/></g></g></svg>