<svg xmlns="http://www.w3.org/2000/svg" viewBox="0 0 120 120"><defs><style>.cls-1{fill:#5db28d;}.cls-2{fill:#5db998;}.cls-2,.cls-3{stroke:#102b5e;stroke-linejoin:round;stroke-width:1.1px;}.cls-3{fill:#50a183;}</style></defs><title>growmoney</title><g id="Layer_2" data-name="Layer 2"><rect class="cls-1" x="8.56" y="50.85" width="25.04" height="41.65" rx="1.43"/><path class="cls-2" d="M31,85.22V58.13a4.6,4.6,0,0,1-4.6-4.6H15.78a4.6,4.6,0,0,1-4.6,4.6V85.22a4.6,4.6,0,0,1,4.6,4.6h10.6A4.6,4.6,0,0,1,31,85.22Z"/><circle class="cls-3" cx="21.08" cy="71.68" r="5.69"/><circle class="cls-3" cx="21.08" cy="59.46" r="2.06"/><circle class="cls-3" cx="21.08" cy="83.64" r="2.06"/><rect class="cls-1" x="36.82" y="39.27" width="32" height="53.23" rx="1.43"/><path class="cls-2" d="M65.47,83.2V48.57a5.88,5.88,0,0,1-5.88-5.88H46.05a5.88,5.88,0,0,1-5.88,5.88V83.2a5.88,5.88,0,0,1,5.88,5.88H59.59A5.88,5.88,0,0,1,65.47,83.2Z"/><circle class="cls-3" cx="52.82" cy="65.88" r="7.28"/><circle class="cls-3" cx="52.82" cy="50.27" r="2.63"/><circle class="cls-3" cx="52.82" cy="81.18" r="2.63"/><rect class="cls-1" x="72.23" y="27.31" width="39.19" height="65.19" rx="1.43"/><path class="cls-2" d="M107.32,81.11V38.7a7.21,7.21,0,0,1-7.2-7.2H83.53a7.2,7.2,0,0,1-7.2,7.2V81.11a7.2,7.2,0,0,1,7.2,7.2h16.59A7.2,7.2,0,0,1,107.32,81.11Z"/><circle class="cls-3" cx="91.83" cy="59.9" r="8.91"/><circle class="cls-3" cx="91.83" cy="40.78" r="3.22"/><circle class="cls-3" cx="91.83" cy="78.64" r="3.22"/></g></svg>