<svg xmlns="http://www.w3.org/2000/svg" viewBox="0 0 120 120"><defs><style>.cls-1{fill:#5db998;}.cls-1,.cls-2,.cls-7{stroke:#102b5e;stroke-miterlimit:10;}.cls-2,.cls-6{fill:none;}.cls-3,.cls-7{fill:#fff;}.cls-4{fill:#102b5e;}.cls-5{fill:#f3e8e0;}.cls-6{stroke:#fff;stroke-linecap:round;}</style></defs><title>hasle</title><g id="Layer_4" data-name="Layer 4"><path class="cls-1" d="M94.79,36.5H81.94a24.38,24.38,0,0,1-41.88,0H27.21a6.79,6.79,0,0,0-6.79,6.79v44.6A3.6,3.6,0,0,0,24,91.5H98a3.6,3.6,0,0,0,3.6-3.61V43.29A6.79,6.79,0,0,0,94.79,36.5Z"/><path class="cls-2" d="M86.74,54.27V74a4.4,4.4,0,0,1-3.83,4.37L59.1,81.53"/><path class="cls-3" d="M61.1,48.33a24.9,24.9,0,0,1-21-11.83H43.8a1.24,1.24,0,0,1,1,.46,21,21,0,0,0,32.69,0,1.21,1.21,0,0,1,1-.46h3.67A24.89,24.89,0,0,1,61.1,48.33Z"/><path class="cls-4" d="M81.14,37a24,24,0,0,1-40.09,0H43.8a.72.72,0,0,1,.56.28,21.55,21.55,0,0,0,33.47,0,.72.72,0,0,1,.56-.28h2.75M83,36H78.39a1.72,1.72,0,0,0-1.33.64,20.55,20.55,0,0,1-31.93,0A1.72,1.72,0,0,0,43.8,36H39.24A25,25,0,0,0,83,36Z"/><path class="cls-2" d="M33.84,54.27V74a4.42,4.42,0,0,0,3.77,4.37l26.55,3.87L64,91.76"/><path class="cls-5" d="M64,83H69l11.42,1.76a2.45,2.45,0,0,1,2.1,2.44V91H64Z"/><path class="cls-4" d="M69,83.5l11.35,1.75a2,2,0,0,1,1.67,2v3.3H64.49v-7H69m.07-1H63.49v9H83.06V87.2a3,3,0,0,0-2.52-2.94L69.19,82.51Z"/><line class="cls-6" x1="110" y1="92" x2="9" y2="92"/><g id="Rectangle_153" data-name="Rectangle 153"><rect class="cls-7" x="56.77" y="79.84" width="7.39" height="13.93" rx="1.13"/></g><circle class="cls-4" cx="60.46" cy="91.08" r="1.2"/></g></svg>