<svg xmlns="http://www.w3.org/2000/svg" width="46.667" height="46.667" viewBox="0 0 46.667 46.667">
  <path id="Path_15802" data-name="Path 15802" d="M27.542,6.4A23.446,23.446,0,0,0,50.875-16.934,23.446,23.446,0,0,0,27.542-40.267,23.446,23.446,0,0,0,4.208-16.934,23.446,23.446,0,0,0,27.542,6.4Zm0-2.49A20.8,20.8,0,0,1,6.724-16.934,20.8,20.8,0,0,1,27.542-37.777,20.82,20.82,0,0,1,48.385-16.934,20.82,20.82,0,0,1,27.542,3.91ZM22.088-5.429a1.229,1.229,0,0,0,1.668-.025L34.141-15.464a2.006,2.006,0,0,0,0-2.963L23.757-28.438a1.181,1.181,0,0,0-1.668-.05,1.187,1.187,0,0,0,0,1.693l10.235,9.836L22.088-7.1A1.137,1.137,0,0,0,22.088-5.429Z" transform="translate(-4.208 40.267)" fill="#49c99b"/>
</svg>
