<?xml version="1.0" encoding="UTF-8"?>
<svg width="28px" height="28px" viewBox="0 0 28 28" version="1.1" xmlns="http://www.w3.org/2000/svg" xmlns:xlink="http://www.w3.org/1999/xlink">
    <!-- Generator: Sketch 41.2 (35397) - http://www.bohemiancoding.com/sketch -->
    <title>HP_BnG</title>
    <desc>Created with Sketch.</desc>
    <defs></defs>
    <g id="Page-1" stroke="none" stroke-width="1" fill="none" fill-rule="evenodd">
        <g id="HP_BnG" fill="#333333">
            <g id="Layer_1">
                <path d="M14.28,0.66 L15.48,0.66 C22.0923919,1.2213599 27.3180205,6.50208433 27.81,13.12 C27.7659286,13.7325416 27.7659286,14.3474584 27.81,14.96 C27.6942844,16.7097961 27.2427314,18.4209441 26.48,20 C24.4183314,24.2179165 20.3133774,27.0618468 15.64,27.51 C15.2555939,27.5619616 14.8678651,27.585359 14.48,27.58 C14.2252574,27.6244453 13.9647426,27.6244453 13.71,27.58 C14.6566667,24.9133333 15.6066667,22.2466667 16.56,19.58 L19.69,19.58 C20.3731527,19.5696627 20.9820003,19.1466322 21.23,18.51 C22.11,16.03 23.01,13.51 23.87,11.06 C24.0448803,10.678299 24.0905207,10.2499814 24,9.84 C23.8291503,9.34004181 23.4139305,8.96256932 22.9,8.84 C22.4665389,8.74723677 22.0220406,8.71693007 21.58,8.75 L17.58,8.75 L17.49,8.93 C15.3033333,15.0166667 13.14,21.1 11,27.18 C5.93841256,25.8846596 2.0762081,21.788854 1.08,16.66 C0.935170807,15.8404691 0.848288836,15.0117488 0.82,14.18 C0.842224234,12.4432481 1.18110538,10.7251207 1.82,9.11 C3.46416,5.01555184 7.00933072,1.98590647 11.31,1 C9.13,7 7,13.09 4.81,19.15 C4.95259942,19.1705129 5.09740058,19.1705129 5.24,19.15 L7.63,19.15 C7.74,19.15 7.73,19 7.77,18.93 C8.77,16.22 9.7,13.52 10.66,10.81 C10.7133185,10.6396979 10.7767648,10.4727337 10.85,10.31 L12.35,10.31 C11.35,13.24 10.27,16.18 9.21,19.11 C9.32575949,19.1305754 9.44424051,19.1305754 9.56,19.11 L12.07,19.11 C13.01,16.44 13.97,13.78 14.92,11.11 C15.1502314,10.5615864 15.1132994,9.93743546 14.82,9.42 C14.5158979,8.99315903 14.0240909,8.73980391 13.5,8.74 L11.41,8.74 C12.35,6.08 13.33,3.38 14.28,0.66 Z M17.18,18.16 L18.73,18.16 C19.64,15.5 20.62,12.87 21.55,10.22 L20.35,10.22 C20.24,10.22 20.08,10.22 20,10.27 C19.06,12.89 18.13,15.53 17.19,18.16 L17.18,18.16 Z" id="Shape"></path>
            </g>
        </g>
    </g>
</svg>