<?xml version="1.0" encoding="UTF-8"?>
<svg width="112px" height="23px" viewBox="0 0 112 23" version="1.1" xmlns="http://www.w3.org/2000/svg" xmlns:xlink="http://www.w3.org/1999/xlink">
    <!-- Generator: Sketch 41.2 (35397) - http://www.bohemiancoding.com/sketch -->
    <title>Husqvarna_BnG</title>
    <desc>Created with Sketch.</desc>
    <defs></defs>
    <g id="Page-1" stroke="none" stroke-width="1" fill="none" fill-rule="evenodd">
        <g id="Husqvarna_BnG" fill="#333333">
            <g id="Layer_1">
                <path d="M4.14,11.35 L4.14,6.81 L6.4,6.81 L6.4,9.45 C6.4,10.01 6.59,10.27 7.22,10.27 L9.22,10.27 C9.85,10.27 10.04,10.01 10.04,9.45 L10.04,6.81 L12.29,6.81 L12.29,16.18 L10.07,16.18 L10.07,13.26 C10.07,12.7 9.88,12.44 9.25,12.44 L7.25,12.44 C6.62,12.44 6.43,12.7 6.43,13.26 L6.43,16.18 L4.14,16.18 L4.14,11.35 Z" id="Shape"></path>
                <path d="M14.77,5.27 C15.99,4.71 15.77,2.37 15.77,2.37 C14.8676915,1.80335956 13.8724099,1.40050747 12.83,1.18 L12.83,2.62 C12.8132549,3.03034649 12.6078764,3.4099421 12.2735537,3.64846468 C11.9392311,3.88698726 11.5134664,3.95768095 11.12,3.84 C10.5,3.71 9.79,3.42 9.79,2.41 L9.79,0.59 C8.72587431,0.485877527 7.65412569,0.485877527 6.59,0.59 L6.59,2.41 C6.59,3.41 5.89,3.71 5.26,3.84 C4.87056543,3.94670967 4.4537416,3.87072246 4.12701407,3.63345604 C3.80028654,3.39618961 3.59904088,3.02334065 3.58,2.62 L3.58,1.18 C2.54106019,1.4016263 1.54925413,1.80444173 0.65,2.37 C0.65,2.37 0.48,4.71 1.65,5.27 C1.65,5.27 0.15,6.84 0.15,11.27 C0.15,18.43 2.6,19.8 8.15,19.8 C13.7,19.8 16.15,18.44 16.15,11.27 C16.15,6.8 14.65,5.27 14.65,5.27 L14.77,5.27 Z M13.69,11.66 C13.69,16.87 12.57,17.43 8.24,17.43 C3.91,17.43 2.79,16.87 2.79,11.66 L2.79,11.32 C2.79,6.11 3.91,5.55 8.24,5.55 C12.57,5.55 13.69,6.11 13.69,11.32 L13.69,11.66 L13.69,11.66 Z" id="Shape"></path>
                <polygon id="Shape" points="29.91 18.53 32.26 18.53 32.24 18.53 32.24 4.98 32.26 4.98 29.91 4.98 29.91 10.35 29.91 10.33 23.44 10.33 23.44 10.33 23.44 5 23.44 4.98 21.11 4.98 21.11 18.53 23.44 18.53 23.44 18.54 23.44 12.32 29.91 12.32 29.91 18.54 29.91 18.53"></polygon>
                <path d="M42.89,8.69 L42.89,18.53 L40.89,18.53 L40.89,17.6 C40.0940878,18.3891252 39.0104263,18.8189777 37.89,18.79 C36.89,18.79 34.52,18.32 34.52,15.79 L34.52,8.69 L36.59,8.69 L36.59,14.88 C36.59,16.61 37.48,17.06 38.47,17.06 C39.1497791,17.0924558 39.8100092,16.8273603 40.2785885,16.3338156 C40.7471679,15.8402709 40.9776664,15.1671811 40.91,14.49 L40.91,8.69 L42.98,8.69 L42.89,8.69 Z" id="Shape"></path>
                <path d="M90.68,8.58 L90.68,10.46 C88.52,10.14 87.57,11.56 87.57,13.28 L87.57,18.52 L85.5,18.52 L85.5,8.71 L85.5,8.71 L87.42,8.71 L87.59,10.01 C88.1997385,8.92509258 89.4410608,8.3590173 90.66,8.61 L90.68,8.58 Z" id="Shape"></path>
                <polygon id="Shape" points="70.11 15.86 67.65 8.69 65.62 8.69 69.01 18.53 71.28 18.53 74.65 8.69 72.57 8.69 70.11 15.86"></polygon>
                <path d="M52.84,11.46 C52.84,10.1 51.84,8.31 48.72,8.31 C45.6,8.31 44.49,10 44.49,11.37 C44.49,12.74 45.49,14 47.58,14.28 C50.06,14.61 50.99,14.78 50.99,15.79 C50.99,16.57 50.52,17.24 48.75,17.24 C48.1596866,17.3214176 47.563161,17.1419441 47.1157716,16.7483181 C46.6683821,16.3546922 46.4144118,15.7858754 46.42,15.19 L46.42,15.19 L44.29,15.19 C44.29,17 45.51,18.85 48.67,18.85 C51.83,18.85 53.1,17.37 53.1,15.62 C53.1,13.87 51.7,12.97 49.58,12.71 C47.46,12.45 46.58,12.19 46.58,11.26 C46.58,10.48 47.23,9.92 48.58,9.92 C50.27,9.92 50.79,10.74 50.79,11.48 L52.79,11.48 L52.84,11.46 Z" id="Shape"></path>
                <path d="M62,8.69 L62,8.69 L62,9.76 C61.2662105,8.86327295 60.15823,8.35729521 59,8.39 C56.49,8.39 54.5,10.27 54.5,13.7 C54.5,16.87 56.28,18.79 58.81,18.79 C60.0399943,18.8250427 61.2119222,18.2669819 61.96,17.29 L61.96,17.29 L61.96,22.46 L64,22.46 L64,8.69 L62,8.69 Z M59.11,17.17 C57.23,17.17 56.52,15.44 56.52,13.63 C56.52,11.82 57.28,10.03 59.24,10.03 C61.2,10.03 62,11.67 62,13.4 C62,15.47 60.93,17.18 59.06,17.18 L59.11,17.17 Z" id="Shape"></path>
                <path d="M83.62,16.35 L83.62,10.61 C83.62,9.12 82.3,8.28 79.99,8.28 C77.68,8.28 75.54,9.1 75.54,11.79 L77.59,11.79 C77.59,10.5 78.2,9.79 79.79,9.79 C81.38,9.79 81.71,10.63 81.71,11.28 C81.71,13.46 75.04,11.71 75.04,15.89 C75.04,18.11 77.28,18.83 78.58,18.83 C79.7772733,18.8775031 80.9461708,18.4579908 81.84,17.66 L82.01,18.46 L84.16,18.46 L84.16,18.19 C83.8,18.19 83.61,16.85 83.61,16.31 L83.62,16.35 Z M81.72,14.67 C81.72,16.76 80.61,17.21 78.93,17.21 C78.4911501,17.2737669 78.0462222,17.1439894 77.7104732,16.854286 C77.3747242,16.5645826 77.1811882,16.1434569 77.18,15.7 C77.18,13.89 81.72,13.91 81.72,13.48 L81.72,14.67 Z" id="Shape"></path>
                <path d="M91.94,18.53 L91.94,8.69 L93.94,8.69 L93.94,9.89 C94.5822902,8.87388491 95.7440646,8.30848803 96.94,8.43 C97.94,8.43 100.31,8.9 100.31,11.43 L100.31,18.49 L98.32,18.49 L98.32,12.29 C98.32,10.56 97.44,10.11 96.44,10.11 C95.7327343,10.1685165 95.0778638,10.5061989 94.620039,11.0484586 C94.1622143,11.5907182 93.9391077,12.2929349 94,13 L94,18.53 L91.94,18.53 Z" id="Shape"></path>
                <path d="M110.73,16.35 L110.73,10.61 C110.73,9.12 109.41,8.28 107.1,8.28 C104.79,8.28 102.65,9.1 102.65,11.79 L104.7,11.79 C104.7,10.5 105.31,9.79 106.9,9.79 C108.49,9.79 108.82,10.63 108.82,11.28 C108.82,13.46 102.15,11.71 102.15,15.89 C102.15,18.11 104.39,18.83 105.69,18.83 C106.90001,18.8978441 108.088387,18.4885544 109,17.69 L109.17,18.49 L111.32,18.49 L111.32,18.22 C110.96,18.22 110.77,16.88 110.77,16.34 L110.73,16.35 Z M108.83,14.67 C108.83,16.76 107.72,17.21 106.04,17.21 C105.60115,17.2737669 105.156222,17.1439894 104.820473,16.854286 C104.484724,16.5645826 104.291188,16.1434569 104.29,15.7 C104.29,13.89 108.83,13.91 108.83,13.48 L108.83,14.67 L108.83,14.67 Z" id="Shape"></path>
            </g>
        </g>
    </g>
</svg>