<svg xmlns="http://www.w3.org/2000/svg" viewBox="4475.205 973 22 22">
  <defs>
    <style>
      .cls-1 {
        fill: #333;
      }
    </style>
  </defs>
  <path id="Path_562" data-name="Path 562" class="cls-1" d="M11.029,21.974H2.844A2.623,2.623,0,0,1,0,19.242V2.79A2.668,2.668,0,0,1,2.844,0H19.272A2.656,2.656,0,0,1,22,2.732V19.3a2.562,2.562,0,0,1-2.67,2.674C16.544,22.032,13.757,21.974,11.029,21.974Zm.813-12.15V8.6H9v9.708h2.844v-.756c0-1.57,0-3.2.058-4.767a1.678,1.678,0,0,1,1.858-1.744c.929,0,1.509.639,1.567,1.8.058,1.337,0,2.732,0,4.069v1.4h2.9c0-2.442.116-4.825-.058-7.267a3.082,3.082,0,0,0-3.193-2.79A3.645,3.645,0,0,0,11.842,9.824ZM6.966,8.6H4.005v9.708h2.96Zm.29-3.139a1.8,1.8,0,1,0-3.6.058,1.761,1.761,0,0,0,1.8,1.744A1.773,1.773,0,0,0,7.256,5.464Z" transform="translate(4475.205 973)"/>
</svg>
