<?xml version="1.0" encoding="UTF-8"?>
<svg width="665px" height="416px" viewBox="0 0 665 416" version="1.1" xmlns="http://www.w3.org/2000/svg" xmlns:xlink="http://www.w3.org/1999/xlink">
    <!-- Generator: Sketch 61.2 (89653) - https://sketch.com -->
    <title>landing_hero-img</title>
    <desc>Created with Sketch.</desc>
    <defs>
        <linearGradient x1="3.2%" y1="50%" x2="100%" y2="50%" id="linearGradient-1">
            <stop stop-color="#00D094" offset="0%"></stop>
            <stop stop-color="#00D094" stop-opacity="0" offset="100%"></stop>
        </linearGradient>
        <linearGradient x1="100%" y1="50%" x2="0%" y2="50%" id="linearGradient-2">
            <stop stop-color="#D8742F" stop-opacity="0" offset="0%"></stop>
            <stop stop-color="#D8742F" offset="100%"></stop>
        </linearGradient>
        <linearGradient x1="100%" y1="50%" x2="0%" y2="50%" id="linearGradient-3">
            <stop stop-color="#022C61" stop-opacity="0" offset="0%"></stop>
            <stop stop-color="#022C61" stop-opacity="0" offset="51.7%"></stop>
            <stop stop-color="#022C61" stop-opacity="0.11" offset="76.8%"></stop>
            <stop stop-color="#022C61" stop-opacity="0.949" offset="100%"></stop>
        </linearGradient>
    </defs>
    <g id="Page-1" stroke="none" stroke-width="1" fill="none" fill-rule="evenodd">
        <g id="landing_hero-img" transform="translate(-20.000000, 0.000000)" fill-rule="nonzero">
            <rect id="Rectangle_70612" fill="url(#linearGradient-1)" opacity="0.115" x="342.432" y="165.151" width="343" height="145"></rect>
            <rect id="Rectangle_70609" fill="url(#linearGradient-2)" opacity="0.245" x="80.432" y="0.151" width="443" height="117"></rect>
            <path d="M205.438,174.803 L338.485,308.603 C340.120074,310.247896 342.585916,310.744003 344.7299,309.859421 C346.873883,308.974838 348.272,306.884299 348.272,304.565 L348.272,170.765 C348.272,167.602618 345.708382,165.039 342.546,165.039 L209.498,165.039 C207.184805,165.039 205.098755,166.430634 204.210619,168.566538 C203.322482,170.702441 203.806725,173.162935 205.438,174.803 L205.438,174.803 Z" id="Path_15801" fill="#00CC98"></path>
            <circle id="Ellipse_156" fill="#102B5E" transform="translate(83.836000, 222.999994) rotate(45.000000) translate(-83.836000, -222.999994) " cx="83.836" cy="222.999994" r="59.281"></circle>
            <rect id="Rectangle_70614" fill="url(#linearGradient-3)" opacity="0.245" transform="translate(241.448770, 380.611764) rotate(45.000000) translate(-241.448770, -380.611764) " x="19.9747702" y="321.330764" width="442.948" height="118.562"></rect>
            <rect id="Rectangle_70615" fill="#D8742F" x="20.328" y="0" width="117.295" height="117.295" rx="18"></rect>
        </g>
    </g>
</svg>