<svg xmlns="http://www.w3.org/2000/svg" width="19.591" height="19.563" viewBox="0 0 19.591 19.563">
  <path id="Path_172" data-name="Path 172" d="M9.822,19.539H2.533A2.335,2.335,0,0,1,0,17.11V2.481A2.374,2.374,0,0,1,2.533,0H17.162a2.364,2.364,0,0,1,2.43,2.43V17.162a2.28,2.28,0,0,1-2.378,2.378C14.732,19.591,12.251,19.539,9.822,19.539Zm.724-10.8V7.65H8.012v8.633h2.533v-.672c0-1.4,0-2.843.052-4.239a1.493,1.493,0,0,1,1.654-1.551c.827,0,1.344.569,1.4,1.6.052,1.189,0,2.43,0,3.618v1.241h2.585c0-2.171.1-4.29-.052-6.461A2.743,2.743,0,0,0,13.337,7.34,3.247,3.247,0,0,0,10.545,8.736ZM6.2,7.65H3.567v8.633H6.2Zm.258-2.791a1.6,1.6,0,1,0-3.2.052,1.567,1.567,0,0,0,1.6,1.551A1.578,1.578,0,0,0,6.462,4.859Z" fill="#333"/>
</svg>
