<?xml version="1.0" encoding="UTF-8"?>
<svg width="91px" height="20px" viewBox="0 0 91 20" version="1.1" xmlns="http://www.w3.org/2000/svg" xmlns:xlink="http://www.w3.org/1999/xlink">
    <!-- Generator: Sketch 41.2 (35397) - http://www.bohemiancoding.com/sketch -->
    <title>Microsoft</title>
    <desc>Created with Sketch.</desc>
    <defs></defs>
    <g id="Page-1" stroke="none" stroke-width="1" fill="none" fill-rule="evenodd">
        <g id="Microsoft">
            <g id="Layer_1">
                <path d="M0.17,0.47 L9.35,0.47 L9.35,9.65 L0.17,9.65 L0.17,0.47 Z" id="Shape" fill="#F25022"></path>
                <path d="M10.28,0.47 L19.46,0.47 L19.46,9.65 L10.28,9.65 L10.28,0.47 L10.28,0.47 Z" id="Shape" fill="#80BA01"></path>
                <path d="M82.93,4 C83.802566,3.48503105 84.8517434,3.36159841 85.82,3.66 L85.82,5.36 C85.3706356,5.12203196 84.8443396,5.07516998 84.36,5.23 C83.9922877,5.40299362 83.7419132,5.75579406 83.7,6.16 C83.6703486,6.65622411 83.6703486,7.15377589 83.7,7.65 L86.6,7.65 L86.6,5.76 C87.26,5.57 87.91,5.36 88.6,5.17 L88.6,7.65 L90.6,7.65 L90.6,9.26 L88.6,9.26 L88.6,12.04 L88.6,13.58 C88.6101354,13.8965711 88.7696453,14.1896242 89.03,14.37 C89.5208212,14.6043373 90.1006281,14.5505804 90.54,14.23 L90.54,15.86 C89.9676559,16.0964362 89.3470328,16.1924442 88.73,16.14 C88.1341731,16.1202311 87.5716045,15.860584 87.17,15.42 C86.7757756,14.8710618 86.5784516,14.2050931 86.61,13.53 L86.61,9.26 L83.71,9.26 L83.71,15.96 L81.71,15.96 L81.71,9.27 L80.3,9.27 L80.3,7.68 L81.68,7.68 C81.6373937,6.97025795 81.6844312,6.25797577 81.82,5.56 C81.9878686,4.92226545 82.3825171,4.36762433 82.93,4 L82.93,4 Z" id="Shape" fill="#777777"></path>
                <path d="M40.43,4.09 C40.8392737,4.02289119 41.2544026,4.17007324 41.53,4.48 C41.8435031,4.83768445 41.8994709,5.35338815 41.67,5.77 C41.3927184,6.21654699 40.8623204,6.43754618 40.35,6.32 C39.8143042,6.22279171 39.4261127,5.75443027 39.43,5.21 C39.4350756,4.63673048 39.8616028,4.15475475 40.43,4.08 L40.43,4.09 Z" id="Shape" fill="#777777"></path>
                <path d="M25.22,4.33 L28.11,4.33 L30.81,11.17 C31.04,11.74 31.25,12.32 31.5,12.88 C32.65,10 33.82,7.19 35,4.34 L37.78,4.34 L37.78,15.91 L35.78,15.91 L35.78,7.37 L35.78,6.99 C35.7422584,7.05091342 35.7088429,7.11440305 35.68,7.18 C34.53,10.09 33.36,13 32.22,15.92 L30.79,15.92 C29.61,13.01 28.44,10.09 27.26,7.17 L27.16,6.99 L27.16,10.73 L27.16,15.91 L25.22,15.91 L25.22,4.34 L25.22,4.33 Z" id="Shape" fill="#777777"></path>
                <path d="M45.89,7.6 C46.8544921,7.32777025 47.8755079,7.32777025 48.84,7.6 C49.0396299,7.65486775 49.2312474,7.73554878 49.41,7.84 L49.41,9.74 C48.7736808,9.21936613 47.9590234,8.96815021 47.14,9.04 C46.484772,9.09994092 45.885431,9.43411891 45.49,9.96 C45.0267169,10.6311254 44.8371424,11.4538074 44.96,12.26 C45.0070658,12.8917409 45.2931505,13.4817906 45.76,13.91 C46.2812557,14.3351584 46.9513494,14.5333044 47.62,14.46 C48.266363,14.3742584 48.8795572,14.1227799 49.4,13.73 L49.4,15.53 C48.5706189,15.9769837 47.6286171,16.1716408 46.69,16.09 C45.7267432,16.0494649 44.810537,15.6623856 44.11,15 C43.3724788,14.2586695 42.9436295,13.2651687 42.91,12.22 C42.828213,11.1358348 43.1020436,10.0545549 43.69,9.14 C44.2206339,8.38100329 44.9981898,7.82964552 45.89,7.58 L45.89,7.6 Z" id="Shape" fill="#777777"></path>
                <path d="M67.57,7.48 C68.4961113,7.32918152 69.4457192,7.42932199 70.32,7.77 L70.32,9.59 C69.7063072,9.17874847 68.9782243,8.97222495 68.24,9 C67.852517,8.98844578 67.4890898,9.18737431 67.29,9.52 C67.1509764,9.88062839 67.2696078,10.2897022 67.58,10.52 C68.14,10.9 68.81,11.06 69.4,11.39 C69.8818578,11.6244369 70.279878,12.0015087 70.54,12.47 C70.9824881,13.4188952 70.7645843,14.5447317 70,15.26 C69.2261922,15.8919283 68.2346516,16.1937015 67.24,16.1 C66.5515802,16.0646788 65.8746758,15.9089908 65.24,15.64 L65.24,13.72 C65.7726042,14.1139733 66.3883322,14.3807888 67.04,14.5 C67.4993045,14.5962215 67.9769911,14.5508936 68.41,14.37 C68.5976742,14.2571141 68.7300649,14.0713855 68.7755651,13.8571554 C68.8210653,13.6429253 68.7755915,13.4194202 68.65,13.24 C68.4053604,12.9884366 68.1083276,12.7938289 67.78,12.67 C67.1778274,12.4439165 66.6039763,12.1486013 66.07,11.79 C65.7027606,11.5077468 65.441928,11.1094483 65.33,10.66 C65.1386997,9.9847412 65.2364912,9.26035957 65.6,8.66 C66.0756484,8.00284648 66.797156,7.56633434 67.6,7.45 L67.57,7.48 Z" id="Shape" fill="#777777"></path>
                <path d="M53.85,7.74 C54.4117798,7.42452612 55.0821988,7.36622881 55.69,7.58 L55.69,9.58 C55.2917182,9.32640978 54.8198892,9.21373418 54.35,9.26 C53.7924765,9.3585184 53.3243956,9.73600301 53.11,10.26 C52.8846597,10.7933586 52.7887129,11.3724664 52.83,11.95 L52.83,15.95 L50.83,15.95 L50.83,7.66 L52.83,7.66 L52.83,9.08 C53.0104077,8.54800851 53.3620831,8.09083049 53.83,7.78 L53.85,7.74 Z" id="Shape" fill="#777777"></path>
                <path d="M39.61,7.61 L41.61,7.61 L41.61,15.9 L39.61,15.9 L39.61,7.61 Z" id="Shape" fill="#777777"></path>
                <path d="M63.92,9.55 C63.5734078,8.7770132 62.9589521,8.15545389 62.19,7.8 C61.2927791,7.42702089 60.3099085,7.30935329 59.35,7.46 C58.3343883,7.57293822 57.4005112,8.07029035 56.74,8.85 C56.1777222,9.57715519 55.8561349,10.4615201 55.82,11.38 C55.7001728,12.4665 55.9579423,13.5611374 56.55,14.48 C57.0941589,15.2575053 57.9121981,15.8004833 58.84,16 C59.605156,16.1590443 60.394844,16.1590443 61.16,16 C62.0647066,15.8191591 62.8740619,15.3186368 63.44,14.59 C63.9645222,13.8879706 64.2674638,13.0453054 64.31,12.17 C64.397857,11.277873 64.2638856,10.37786 63.92,9.55 L63.92,9.55 Z M62,13.36 C61.8160699,13.8151512 61.4551512,14.1760699 61,14.36 C60.4801831,14.5500539 59.9142732,14.5745068 59.38,14.43 C58.8460238,14.2827589 58.3970238,13.9206621 58.14,13.43 C57.8480191,12.7782002 57.7441071,12.0577432 57.84,11.35 C57.8739039,10.6979563 58.1482326,10.0816074 58.61,9.62 C58.9607562,9.26080199 59.4295946,9.04059003 59.93,9 C60.5378915,8.94124525 61.1419242,9.14501531 61.59,9.56 C62.0194312,10.0356294 62.2642245,10.6493866 62.28,11.29 C62.3561785,11.9925003 62.2600745,12.7029832 62,13.36 Z" id="Shape" fill="#777777"></path>
                <path d="M79.81,9.79 C79.5053422,8.95628611 78.8985942,8.26744868 78.11,7.86 C77.1876531,7.43858681 76.1612619,7.29941513 75.16,7.46 C74.363705,7.55586517 73.612859,7.88262222 73,8.4 C72.2677799,9.06242376 71.8020574,9.96898285 71.69,10.95 C71.5336455,11.9204411 71.6407054,12.9150628 72,13.83 C72.3736201,14.7364755 73.0935245,15.4563799 74,15.83 C74.8951645,16.1585615 75.861979,16.2414313 76.8,16.07 C77.7642772,15.9172886 78.6355427,15.4066699 79.24,14.64 C79.8487633,13.8242302 80.1657282,12.8275515 80.14,11.81 C80.1625523,11.1216042 80.0504544,10.4354294 79.81,9.79 L79.81,9.79 Z M78,12.6 C77.9384228,13.0439438 77.7626957,13.4643106 77.49,13.82 C77.1917488,14.1610473 76.7792725,14.3815088 76.33,14.44 C75.8519081,14.5224354 75.3603163,14.4705067 74.91,14.29 C74.447714,14.0654383 74.0896179,13.6715326 73.91,13.19 C73.6893793,12.6137817 73.6071721,11.9938027 73.67,11.38 C73.6927296,10.7808273 73.9025505,10.20382 74.27,9.73 C74.623787,9.29762086 75.1422969,9.03292702 75.7,9 C76.2712163,8.94113841 76.842588,9.11003446 77.29,9.47 C77.6766609,9.82770759 77.9275385,10.3082619 78,10.83 C78.105261,11.4153051 78.105261,12.0146949 78,12.6 Z" id="Shape" fill="#777777"></path>
                <path d="M0.17,10.59 L9.35,10.59 L9.35,19.77 L0.17,19.77 L0.17,10.59 Z" id="Shape" fill="#02A4EF"></path>
                <path d="M10.28,10.59 L19.46,10.59 L19.46,19.77 L10.28,19.77 L10.28,10.59 Z" id="Shape" fill="#FFB902"></path>
            </g>
        </g>
    </g>
</svg>