<?xml version="1.0" encoding="UTF-8"?>
<svg width="96px" height="14px" viewBox="0 0 96 14" version="1.1" xmlns="http://www.w3.org/2000/svg" xmlns:xlink="http://www.w3.org/1999/xlink">
    <!-- Generator: Sketch 41.2 (35397) - http://www.bohemiancoding.com/sketch -->
    <title>nissan_BnG</title>
    <desc>Created with Sketch.</desc>
    <defs></defs>
    <g id="Page-1" stroke="none" stroke-width="1" fill="none" fill-rule="evenodd">
        <g id="nissan_BnG" fill="#333333">
            <g id="Layer_1">
                <path d="M20,0.54 L23.3,0.54 C23.482254,0.54 23.63,0.687746033 23.63,0.87 L23.63,13.52 C23.63,13.702254 23.482254,13.85 23.3,13.85 L20,13.85 C19.817746,13.85 19.67,13.702254 19.67,13.52 L19.67,0.87 C19.67,0.687746033 19.817746,0.54 20,0.54 L20,0.54 Z M1.21,0.65 L6.17,0.65 C6.70198411,0.666199543 7.19348766,0.938015899 7.49,1.38 L13.67,11 L13.67,1 C13.67,0.817746033 13.817746,0.67 14,0.67 L16.82,0.67 C17.002254,0.67 17.15,0.817746033 17.15,1 L17.15,13.63 C17.15,13.812254 17.002254,13.96 16.82,13.96 L12,13.96 C11.3625275,13.9959788 10.7537005,13.6915653 10.4,13.16 L4.4,3.83 L4.4,13.63 C4.4,13.812254 4.25225397,13.96 4.07,13.96 L1.22,13.96 C1.03774603,13.96 0.89,13.812254 0.89,13.63 L0.89,1 C0.884478657,0.909067847 0.916793329,0.819898318 0.979288844,0.753615196 C1.04178436,0.687332074 1.12890053,0.649832528 1.22,0.65 L1.21,0.65 Z M79.3,0.65 L84.3,0.65 C84.8319841,0.666199543 85.3234877,0.938015899 85.62,1.38 L91.8,11 L91.8,1 C91.8,0.817746033 91.947746,0.67 92.13,0.67 L94.95,0.67 C95.132254,0.67 95.28,0.817746033 95.28,1 L95.28,13.63 C95.28,13.812254 95.132254,13.96 94.95,13.96 L90.13,13.96 C89.4940716,14.0002186 88.8847065,13.6993446 88.53,13.17 L82.53,3.84 L82.53,13.64 C82.53,13.822254 82.382254,13.97 82.2,13.97 L79.3,13.97 C79.117746,13.97 78.97,13.822254 78.97,13.64 L78.97,1 C78.9644787,0.909067847 78.9967933,0.819898318 79.0592888,0.753615196 C79.1217844,0.687332074 79.2089005,0.649832528 79.3,0.65 L79.3,0.65 Z M65.36,8.53 L70.76,8.53 L68.56,3.63 L67.56,3.63 L65.36,8.53 Z M72,11.24 L64.14,11.24 L63.07,13.61 C62.984239,13.7966516 62.8046833,13.9227226 62.6,13.94 L59.31,13.94 C59.13,13.94 59.05,13.79 59.13,13.61 L64.82,1 C64.9073931,0.814715315 65.0860481,0.689276739 65.29,0.67 L70.82,0.67 C71.0246833,0.68727742 71.204239,0.813348448 71.29,1 L77,13.61 C77.08,13.79 77,13.94 76.82,13.94 L73.52,13.94 C73.3153167,13.9227226 73.135761,13.7966516 73.05,13.61 L72,11.24 Z M40.39,3.58 L30.62,3.58 C30.3825176,3.58 30.19,3.77251756 30.19,4.01 L30.19,4.76 C30.1899368,4.99363139 30.3764318,5.18456672 30.61,5.19 C30.61,5.19 38.67,5.95 38.72,5.98 C40.1905943,6.32008115 41.2315412,7.63059601 41.23,9.14 L41.23,10.6 C41.23,12.43 40.29,13.96 37.13,13.96 L26.66,13.96 C26.5091828,13.9600962 26.3853863,13.840721 26.38,13.69 L26.38,11.26 C26.3853863,11.109279 26.5091828,10.9899038 26.66,10.99 L36.94,10.99 C37.1735682,10.9845667 37.3600632,10.7936314 37.36,10.56 L37.36,9.56 C37.36,9.32251756 37.1674824,9.13 36.93,9.13 L29.45,8.49 L29.4,8.49 C27.7431458,8.49 26.4,7.14685425 26.4,5.49 L26.4,4 C26.3994827,2.1751215 27.8556387,0.683449417 29.68,0.64 L40.39,0.64 C40.5408172,0.639903786 40.6646137,0.759278988 40.67,0.91 L40.67,3.29 C40.6727152,3.36597766 40.6444184,3.43979319 40.591611,3.49448652 C40.5388037,3.54917985 40.4660261,3.5800485 40.39,3.58 Z M57.3,3.58 L47.54,3.58 C47.3025176,3.58 47.11,3.77251756 47.11,4.01 L47.11,4.76 C47.1099368,4.99363139 47.2964318,5.18456672 47.53,5.19 C47.53,5.19 55.59,5.95 55.64,5.98 C57.1105943,6.32008115 58.1515412,7.63059601 58.15,9.14 L58.15,10.6 C58.15,12.43 57.21,13.96 54.05,13.96 L43.57,13.96 C43.4191828,13.9600962 43.2953863,13.840721 43.29,13.69 L43.29,11.26 C43.2953863,11.109279 43.4191828,10.9899038 43.57,10.99 L53.86,10.99 C54.0935682,10.9845667 54.2800632,10.7936314 54.28,10.56 L54.28,9.56 C54.28,9.32251756 54.0874824,9.13 53.85,9.13 L46.37,8.49 L46.31,8.49 C44.6531458,8.49 43.31,7.14685425 43.31,5.49 L43.31,4 C43.3094827,2.1751215 44.7656387,0.683449417 46.59,0.64 L57.31,0.64 C57.4608172,0.639903786 57.5846137,0.759278988 57.59,0.91 L57.59,3.29 C57.5927152,3.36597766 57.5644184,3.43979319 57.511611,3.49448652 C57.4588037,3.54917985 57.3860261,3.5800485 57.31,3.58 L57.3,3.58 Z" id="Shape"></path>
            </g>
        </g>
    </g>
</svg>