<svg xmlns="http://www.w3.org/2000/svg" viewBox="0 0 120 120"><defs><style>.cls-1,.cls-10,.cls-11,.cls-19{fill:none;}.cls-1{stroke:#fff;}.cls-1,.cls-10,.cls-11{stroke-miterlimit:10;}.cls-2,.cls-3,.cls-4,.cls-5,.cls-6,.cls-7,.cls-8,.cls-9{fill:#5db998;}.cls-2{opacity:0.1;}.cls-2,.cls-3,.cls-4,.cls-5,.cls-6,.cls-7,.cls-8{isolation:isolate;}.cls-3{opacity:0.2;}.cls-4{opacity:0.3;}.cls-5{opacity:0.5;}.cls-6{opacity:0.6;}.cls-7{opacity:0.7;}.cls-8{opacity:0.8;}.cls-10,.cls-11{stroke:#f5f5f5;stroke-linecap:round;}.cls-10{stroke-width:3px;}.cls-11{stroke-width:2px;}.cls-12{opacity:0.61;}.cls-13,.cls-14,.cls-15,.cls-16{fill:#f3e8e0;}.cls-13{opacity:0.22;}.cls-14{opacity:0.29;}.cls-15{opacity:0.65;}.cls-17{fill:#102b5e;}.cls-18{fill:#fff;}.cls-18,.cls-19{stroke:#102b5e;}</style></defs><title>pick-your-time</title><g id="Layer_2" data-name="Layer 2"><circle id="Ellipse_72" data-name="Ellipse 72" class="cls-1" cx="41.9" cy="68.48" r="39.26"/><circle id="Ellipse_51" data-name="Ellipse 51" class="cls-2" cx="14.46" cy="84.5" r="3.23"/><circle id="Ellipse_52" data-name="Ellipse 52" class="cls-3" cx="25.88" cy="95.92" r="3.23"/><circle id="Ellipse_53" data-name="Ellipse 53" class="cls-4" cx="41.48" cy="100.1" r="3.23"/><circle id="Ellipse_54" data-name="Ellipse 54" class="cls-5" cx="57.09" cy="95.92" r="3.23"/><circle id="Ellipse_55" data-name="Ellipse 55" class="cls-6" cx="68.51" cy="84.5" r="3.23"/><circle id="Ellipse_56" data-name="Ellipse 56" class="cls-7" cx="72.69" cy="68.9" r="3.23"/><circle id="Ellipse_57" data-name="Ellipse 57" class="cls-8" cx="68.51" cy="53.3" r="3.23"/><circle id="Ellipse_62" data-name="Ellipse 62" class="cls-9" cx="14.46" cy="53.3" r="3.23"/><circle id="Ellipse_63" data-name="Ellipse 63" class="cls-9" cx="10.28" cy="68.9" r="3.23"/><circle id="Ellipse_64" data-name="Ellipse 64" class="cls-9" cx="14.46" cy="84.5" r="3.23"/><circle id="Ellipse_65" data-name="Ellipse 65" class="cls-9" cx="25.88" cy="95.92" r="3.23"/><circle id="Ellipse_66" data-name="Ellipse 66" class="cls-9" cx="41.48" cy="100.1" r="3.23"/><circle id="Ellipse_86" data-name="Ellipse 86" class="cls-9" cx="41.48" cy="36.6" r="3.23"/><circle id="Ellipse_67" data-name="Ellipse 67" class="cls-9" cx="57.09" cy="95.92" r="3.23"/><circle id="Ellipse_85" data-name="Ellipse 85" class="cls-9" cx="25.88" cy="40.78" r="3.23"/><circle id="Ellipse_68" data-name="Ellipse 68" class="cls-6" cx="68.51" cy="84.5" r="3.23"/><circle id="Ellipse_69" data-name="Ellipse 69" class="cls-9" cx="72.69" cy="68.9" r="3.23"/><circle id="Ellipse_70" data-name="Ellipse 70" class="cls-6" cx="68.51" cy="53.3" r="3.23"/><line id="Line_35" data-name="Line 35" class="cls-10" x1="36.61" y1="68.9" x2="56.78" y2="68.9"/><line id="Line_36" data-name="Line 36" class="cls-11" x1="41.48" y1="73.78" x2="41.48" y2="47.03"/><g class="cls-12"><path class="cls-13" d="M80.68,20.54l2.13,4.72a8.82,8.82,0,0,0-1.13.38l-3.93,1.65.89,1.18a7.9,7.9,0,0,0-.88.53l-3.19,2.25L72,37.77a2.07,2.07,0,0,0,3.82,1.6L80,30.08a3,3,0,0,1,1-1.22l4.62-3.25a7.81,7.81,0,0,1,.88-.52l-4.6-6.16Z"/><path class="cls-14" d="M72.79,23.92l2.13,4.73a7.9,7.9,0,0,0-1.13.38L67.9,31.49l-3.76,9.66A2.07,2.07,0,0,0,68,42.75l4.18-9.28a3.05,3.05,0,0,1,1-1.22L77.76,29a7.9,7.9,0,0,1,.88-.53l-4.59-6.16Z"/><path class="cls-15" d="M64,26.43a2.67,2.67,0,0,0-.55.61L55.16,39.5a2.42,2.42,0,0,0,4,2.78l7.11-9.56a3.55,3.55,0,0,1,1.46-1.14L73.79,29a7.9,7.9,0,0,1,1.13-.38l-3.7-8.2Z"/></g><path class="cls-16" d="M62.7,49.21a3.84,3.84,0,0,1-2.7-1.1,3.38,3.38,0,0,1,0-4.77,19,19,0,0,1,8.08-4.85l6.55-2a3.69,3.69,0,0,0,2.66-3.23,3.75,3.75,0,0,0-2.63-3.93l-.4-.12A7.76,7.76,0,0,0,72,28.93a7.17,7.17,0,0,0-1.31.11l-6.52,1.12a3,3,0,0,0-1.43.67l-9.08,7.73a2.92,2.92,0,0,1-3.9-4.35l10.58-10a5.59,5.59,0,0,1,1.47-1l12.83-5.86a5.3,5.3,0,0,1,2.25-.49,5.39,5.39,0,0,1,1.6.24L100.58,24a9.51,9.51,0,0,0,2.85.43h.44l2-.09-1.13,18.33-5-.43-.35,0a4.47,4.47,0,0,0-1,.13L89,44.73a10.61,10.61,0,0,1-2.69.34A11.07,11.07,0,0,1,85.13,45l-6-.65-.37,0a3.46,3.46,0,0,0-1.06.17L63.88,49A3.64,3.64,0,0,1,62.7,49.21Z"/><path class="cls-17" d="M76.87,17.36a4.88,4.88,0,0,1,1.46.22l22.1,6.86a10.19,10.19,0,0,0,3,.45h.46l1.42-.06-1,17.26-4.51-.39-.4,0a4.54,4.54,0,0,0-1.15.15l-9.36,2.43a10.44,10.44,0,0,1-2.56.32,10.28,10.28,0,0,1-1.1-.06l-6-.65-.42,0a3.83,3.83,0,0,0-1.21.19L63.73,48.55a3.35,3.35,0,0,1-1,.16,3.29,3.29,0,0,1-2.34-1h0a2.86,2.86,0,0,1,0-4.06A18.38,18.38,0,0,1,68.2,39L74.75,37a4.24,4.24,0,0,0,3-3.66h0a4.24,4.24,0,0,0-3-4.46l-.39-.12a8.5,8.5,0,0,0-2.4-.35,8.16,8.16,0,0,0-1.39.12l-6.52,1.12a3.44,3.44,0,0,0-1.67.78l-9.08,7.73a2.43,2.43,0,0,1-1.57.57,2.52,2.52,0,0,1-1.41-.44,2.43,2.43,0,0,1-.26-3.74l10.59-10A4.77,4.77,0,0,1,62,23.67L74.83,17.8a5,5,0,0,1,2-.44m0-1a6,6,0,0,0-2.46.53L61.58,22.76A5.78,5.78,0,0,0,60,23.84l-10.58,10a3.42,3.42,0,0,0,.36,5.28,3.46,3.46,0,0,0,2,.63A3.42,3.42,0,0,0,54,38.94L63,31.21a2.56,2.56,0,0,1,1.2-.56l6.52-1.12a7.09,7.09,0,0,1,1.22-.1,7.19,7.19,0,0,1,2.11.31l.39.12a3.23,3.23,0,0,1,2.28,3.4,3.19,3.19,0,0,1-2.3,2.8L67.91,38a19.4,19.4,0,0,0-8.29,5,3.88,3.88,0,0,0,0,5.48,4.34,4.34,0,0,0,3.05,1.24A4.41,4.41,0,0,0,64,49.5L77.88,45a3,3,0,0,1,.9-.14l.31,0,6,.65c.4,0,.81.06,1.21.06a11.18,11.18,0,0,0,2.82-.36l9.36-2.42a3.35,3.35,0,0,1,.89-.12h.31l4.51.39,1,.09.06-1,1.06-17.26.07-1.11-1.11.05-1.42.06h-.42a9.16,9.16,0,0,1-2.7-.41L78.62,16.62a6.08,6.08,0,0,0-1.75-.26Z"/><circle id="Ellipse_87" data-name="Ellipse 87" class="cls-9" cx="57.09" cy="40.78" r="3.23"/><path class="cls-18" d="M114.93,47.59l-8.83-.54a2.14,2.14,0,0,1-2-2.27l1.31-21.33a2.14,2.14,0,0,1,2.27-2l8.83.55"/><circle class="cls-19" cx="107.98" cy="43.48" r="1.72"/></g></svg>