<svg xmlns="http://www.w3.org/2000/svg" viewBox="4507.31 973 19.642 22">
  <defs>
    <style>
      .cls-1 {
        fill: #333;
      }
    </style>
  </defs>
  <path id="Path_563" data-name="Path 563" class="cls-1" d="M16.534,22.107H15.6c-.062,0-.124-.062-.186-.062a3.846,3.846,0,0,1-2.113-.932,5.41,5.41,0,0,1-1.057-1.305c-.062-.124-.124-.186-.311-.124a10.057,10.057,0,0,1-3.605.124,9.424,9.424,0,0,1-5.408-2.735,9.81,9.81,0,0,1-2.8-5.656C.062,10.98.062,10.545,0,10.11V9.924a.374.374,0,0,1,.062-.249C.124,9.3.124,8.867.186,8.494A9.675,9.675,0,0,1,3.543,2.465,9.4,9.4,0,0,1,11.375.227a8.661,8.661,0,0,1,4.973,2.362,10.063,10.063,0,0,1,3.17,5.967c.062.435.062.87.124,1.305v.186a.56.56,0,0,1-.062.311,12.226,12.226,0,0,1-.186,1.492,10,10,0,0,1-4.227,6.464.858.858,0,0,1-.249.186,3.621,3.621,0,0,0,.684.932,5.834,5.834,0,0,0,1.616.87.134.134,0,0,1,.124.124v1.616A4.126,4.126,0,0,0,16.534,22.107ZM13.551,15.58c0-.062,0-.062.062-.062a6.241,6.241,0,0,0,1.243-3.046,26.166,26.166,0,0,0,.062-4.413c0-.249-.062-.435-.062-.684A6.671,6.671,0,0,0,12.432,3.4a4.1,4.1,0,0,0-4.973,0A5.8,5.8,0,0,0,5.035,7.5a19.5,19.5,0,0,0-.062,4.662,6.231,6.231,0,0,0,1.678,3.792,4.315,4.315,0,0,0,3.481,1.492,6.2,6.2,0,0,0,.995-.124,3.4,3.4,0,0,0-2.424-1.8V13.591A6.339,6.339,0,0,1,13.551,15.58Z" transform="translate(4507.31 972.894)"/>
</svg>
