<svg xmlns="http://www.w3.org/2000/svg" width="18.3" height="20.497" viewBox="0 0 18.3 20.497">
  <path id="Path_173" data-name="Path 173" d="M15.4,20.6h-.869c-.058,0-.116-.058-.174-.058a3.583,3.583,0,0,1-1.969-.869,5.04,5.04,0,0,1-.985-1.216c-.058-.116-.116-.174-.29-.116a9.37,9.37,0,0,1-3.359.116,8.78,8.78,0,0,1-5.038-2.548,9.14,9.14,0,0,1-2.606-5.27C.058,10.237.058,9.832,0,9.427V9.253a.348.348,0,0,1,.058-.232c.058-.347.058-.753.116-1.1A9.014,9.014,0,0,1,3.3,2.3,8.754,8.754,0,0,1,10.6.219a8.069,8.069,0,0,1,4.633,2.2,9.375,9.375,0,0,1,2.954,5.56c.058.405.058.811.116,1.216v.174a.522.522,0,0,1-.058.29,11.391,11.391,0,0,1-.174,1.39,9.316,9.316,0,0,1-3.938,6.023.8.8,0,0,1-.232.174,3.374,3.374,0,0,0,.637.869,5.436,5.436,0,0,0,1.506.811.125.125,0,0,1,.116.116v1.506A3.844,3.844,0,0,0,15.4,20.6Zm-2.78-6.081c0-.058,0-.058.058-.058a5.814,5.814,0,0,0,1.158-2.838A24.378,24.378,0,0,0,13.9,7.515c0-.232-.058-.405-.058-.637a6.215,6.215,0,0,0-2.259-3.706,3.823,3.823,0,0,0-4.633,0A5.406,5.406,0,0,0,4.691,6.994a18.167,18.167,0,0,0-.058,4.343A5.806,5.806,0,0,0,6.2,14.87,4.02,4.02,0,0,0,9.44,16.26a5.775,5.775,0,0,0,.927-.116,3.163,3.163,0,0,0-2.259-1.679v-1.8A5.906,5.906,0,0,1,12.625,14.523Z" transform="translate(0 -0.107)" fill="#333"/>
</svg>
