<?xml version="1.0" encoding="UTF-8"?>
<svg width="89px" height="15px" viewBox="0 0 89 15" version="1.1" xmlns="http://www.w3.org/2000/svg" xmlns:xlink="http://www.w3.org/1999/xlink">
    <!-- Generator: Sketch 41.2 (35397) - http://www.bohemiancoding.com/sketch -->
    <title>Toshiba</title>
    <desc>Created with Sketch.</desc>
    <defs></defs>
    <g id="Page-1" stroke="none" stroke-width="1" fill="none" fill-rule="evenodd">
        <g id="Toshiba" fill="#FF0000">
            <path d="M80.69,8.74 L82,4.28 L82,4.28 L83.29,8.74 L80.69,8.74 Z M84.8,14 L88.59,14 L84.68,1.09 L79.3,1.09 L75.38,14 L79.17,14 L79.86,11.61 L84.1,11.61 L84.8,14 Z" id="Shape"></path>
            <path d="M17.3,7.54 L17.3,6.1 C17.4,4.1 18.19,3.87 19.72,3.87 C21.25,3.87 22.04,4.1 22.14,6.1 L22.14,7.54 L22.14,8.99 C22.04,10.99 21.25,11.21 19.72,11.21 C18.19,11.21 17.43,11 17.33,9 L17.33,7.55 M19.78,14.24 C23.68,14.24 25.55,13.56 25.78,10.04 C25.84,9.2 25.86,8.35 25.86,7.55 C25.86,6.75 25.86,5.9 25.78,5.06 C25.51,1.55 23.64,0.86 19.78,0.86 C15.92,0.86 14.01,1.55 13.78,5.06 C13.72,5.9 13.7,6.76 13.7,7.55 C13.7,8.34 13.7,9.2 13.78,10.04 C14.05,13.56 15.93,14.24 19.78,14.24" id="Shape"></path>
            <polygon id="Shape" points="0.82 1.09 0.82 4.31 4.68 4.31 4.68 14 8.54 14 8.54 4.31 12.4 4.31 12.4 1.09"></polygon>
            <rect id="Rectangle-path" x="56.39" y="1.09" width="3.66" height="12.91"></rect>
            <polygon id="Shape" points="45.31 5.8 45.31 1.09 41.67 1.09 41.67 14 45.31 14 45.31 9.02 49.54 9.02 49.54 14 53.18 14 53.18 1.09 49.54 1.09 49.54 5.8"></polygon>
            <path d="M66.94,4 L69.46,4 C69.7478795,3.9792301 70.0306935,4.08385848 70.2357401,4.28698876 C70.4407867,4.49011903 70.5480659,4.77193813 70.53,5.06 C70.5306815,5.33780246 70.415771,5.60336882 70.2128077,5.7930542 C70.0098443,5.98273959 69.7371218,6.07944707 69.46,6.06 L66.94,6.06 L66.94,4 Z M66.94,8.66 L69.46,8.66 C70.46,8.66 70.7,9.11 70.7,9.84 C70.7283798,10.1700645 70.603706,10.4948951 70.3617799,10.721213 C70.1198539,10.9475309 69.787442,11.0502967 69.46,11 L66.94,11 L66.94,8.66 Z M72.1,7.22 C73.4411472,7.01398989 74.3731279,5.77578706 74.2,4.43 C74.2,1.59 72.42,1.06 69.88,1.06 L63.3,1.06 L63.3,14 L70.2,14 C73.38,14 74.45,12.63 74.45,10.52 C74.45,9.05 74.12,7.76 72.1,7.25 L72.1,7.22 Z" id="Shape"></path>
            <path d="M28,9.76 L31.47,9.76 C31.47,10.39 31.56,10.76 31.86,11.03 C32.16,11.3 32.51,11.38 33.54,11.38 C34.57,11.38 35.61,11.38 35.61,10.16 C35.61,9.16 35.01,8.99 33.89,8.93 C31.12,8.78 30.12,8.7 29.09,7.93 C28.2850976,7.17976898 27.8811341,6.09388544 28,5 C28,2.66 28.81,1.84 30,1.27 C31.19,0.7 36,0.68 37.26,1.27 C38.87,2.01 38.92,3.62 38.92,5.11 L35.45,5.11 C35.45,4.35 35.27,4.11 35.13,3.99 C34.6574992,3.67153584 34.0850331,3.53641962 33.52,3.61 C32.62,3.61 31.59,3.61 31.59,4.74 C31.59,5.57 31.94,5.92 32.89,5.98 C34.18,6.06 36.73,6.14 37.64,6.68 C38.92,7.43 39.24,8.45 39.24,10.12 C39.24,12.52 38.38,13.23 37.19,13.76 C34.7303331,14.3950833 32.1496669,14.3950833 29.69,13.76 C28,13 28,11.54 28,9.76" id="Shape"></path>
        </g>
    </g>
</svg>