<?xml version="1.0" encoding="UTF-8"?>
<svg width="88px" height="15px" viewBox="0 0 88 15" version="1.1" xmlns="http://www.w3.org/2000/svg" xmlns:xlink="http://www.w3.org/1999/xlink">
    <!-- Generator: Sketch 41.2 (35397) - http://www.bohemiancoding.com/sketch -->
    <title>Utenos_BnG</title>
    <desc>Created with Sketch.</desc>
    <defs></defs>
    <g id="Page-1" stroke="none" stroke-width="1" fill="none" fill-rule="evenodd">
        <g id="Utenos_BnG" transform="translate(-1.000000, 0.000000)" fill="#333333">
            <g id="Layer_1">
                <path d="M61.55,8.75 C61.7190942,9.72742415 62.1750955,10.6324649 62.86,11.35 C63.7493999,12.2557841 64.9655604,12.7660484 66.235,12.7660484 C67.5044396,12.7660484 68.7206001,12.2557841 69.61,11.35 C70.5610963,10.3150961 71.0612286,8.94422979 71,7.54 C71.007221,6.43548473 70.6563669,5.35836285 70,4.47 C69.9606232,4.42775267 69.9606232,4.36224733 70,4.32 L70.45,3.88 L72.11,2.22 C72.3278378,2.01708328 72.6247588,1.92177533 72.92,1.96 C73.3017956,2.01758023 73.6535945,2.20051564 73.92,2.48 L74.21,2.77 C74.2320208,2.79078168 74.2445017,2.81972139 74.2445017,2.85 C74.2445017,2.88027861 74.2320208,2.90921832 74.21,2.93 L72.48,4.66 C72.8511698,5.57355424 73.0282539,6.55432759 73,7.54 C73.0522654,9.3956895 72.4022953,11.2027493 71.18,12.6 C69.8760169,13.9670028 68.0691979,14.7405032 66.18,14.7405032 C64.2908021,14.7405032 62.4839831,13.9670028 61.18,12.6 C60.2154467,11.5237988 59.6076346,10.175434 59.44,8.74 C59.4371647,8.711793 59.4464349,8.68370812 59.4655046,8.66273146 C59.4845743,8.6417548 59.5116512,8.62985786 59.54,8.63 L61.38,8.63 C61.4189522,8.61738552 61.461571,8.6238589 61.4950208,8.64747052 C61.5284706,8.67108214 61.5488421,8.70907254 61.55,8.75 L61.55,8.75 Z M81.79,12.75 C82.9069933,12.7831845 84.0133511,12.5246896 85,12 C85.6084988,11.6878095 85.9936399,11.063881 86,10.38 C85.9937509,9.76778465 85.5876638,9.23174971 85,9.06 C83.9601703,8.7418409 82.8773331,8.58666797 81.79,8.6 C80.4798278,8.60369127 79.1772334,8.40121545 77.93,8 C77.3227915,7.76158782 76.7981143,7.35157519 76.42,6.82 C76.0668694,6.26537319 75.8891372,5.61717338 75.91,4.96 C76.0063068,3.34700029 77.0636463,1.95036531 78.59,1.42 C79.6044556,0.987713401 80.6973267,0.769820098 81.8,0.78 C82.9702529,0.788612186 84.1267097,1.03350893 85.2,1.5 C86.1576032,1.88012917 86.9482823,2.58925842 87.43,3.5 C87.4583451,3.53869808 87.4583451,3.59130192 87.43,3.63 L87.24,3.82 C86.9838372,4.11785034 86.6287209,4.31316433 86.24,4.37 C85.974688,4.40436592 85.7076949,4.32024479 85.51,4.14 C85.0559146,3.6653406 84.5027954,3.29659447 83.89,3.06 C83.2164945,2.81992837 82.5048499,2.70470972 81.79,2.72 C80.8315858,2.71573288 79.8857823,2.93847645 79.03,3.37 C78.4278013,3.66863684 78.0421732,4.27792931 78.03,4.95 C78.0105662,5.43878047 78.2650763,5.89766991 78.69,6.14 C79.6854029,6.55106789 80.7530916,6.75848513 81.83,6.75 C83.35,6.85 85.42,6.9 86.74,7.75 C87.6435878,8.33730537 88.1627337,9.36414545 88.1,10.44 C88.1185817,11.6676904 87.5169791,12.8220155 86.5,13.51 C85.103322,14.3861697 83.4780483,14.8281606 81.83,14.78 C80.512494,14.7942443 79.206999,14.5283732 78,14 C77.067019,13.612209 76.3041355,12.9025499 75.85,12 C75.8216549,11.9613019 75.8216549,11.9086981 75.85,11.87 L76.04,11.68 C76.2961628,11.3821497 76.6512791,11.1868357 77.04,11.13 C77.305312,11.0956341 77.5723051,11.1797552 77.77,11.36 C78.1506142,11.7694666 78.6009442,12.1080606 79.1,12.36 C79.9538475,12.6998712 80.8731865,12.8434111 81.79,12.78 L81.79,12.75 Z M40.69,8.61 L33.4,8.61 C33.104642,8.59725337 32.8300611,8.45447129 32.65,8.22 C32.4251081,7.90943671 32.3090986,7.53328459 32.32,7.15 L32.32,6.74 C32.32,6.67924868 32.3692487,6.63 32.43,6.63 L40.1,6.63 C39.9,4.26 37.87,2.63 35.29,2.63 C34.0161185,2.64045522 32.7993481,3.1600402 31.9108402,4.07296797 C31.0223324,4.98589574 30.5359208,6.21630319 30.56,7.49 C30.5009568,8.91802885 31.0200788,10.3095641 32,11.35 C32.8637647,12.259323 34.0658625,12.7698525 35.32,12.76 C36.7862741,12.7330795 38.1703087,12.0774842 39.12,10.96 C39.1408943,10.9345634 39.1720821,10.9198212 39.205,10.9198212 C39.2379179,10.9198212 39.2691057,10.9345634 39.29,10.96 L40.58,12.23 C40.6020208,12.2507817 40.6145017,12.2797214 40.6145017,12.31 C40.6145017,12.3402786 40.6020208,12.3692183 40.58,12.39 C39.9307826,13.1439306 39.1255542,13.7478519 38.22,14.16 C35.5402324,15.3253014 32.418541,14.7033553 30.39,12.6 C29.1730454,11.2002443 28.5269541,9.39404443 28.58,7.54 C28.5654972,5.93100718 29.1137727,4.36753772 30.13,3.12 C31.4165372,1.56717067 33.3440739,0.690012523 35.36,0.74 C36.9491797,0.720649549 38.4963197,1.25049202 39.74,2.24 C41.2901559,3.43569657 42.1986744,5.2822789 42.2,7.24 C42.2466639,7.60082071 42.1375749,7.96445093 41.9,8.24 C41.5726683,8.54064457 41.1320277,8.68631088 40.69,8.64 L40.69,8.61 Z M11.55,8.46 L11.55,1.08 C11.55,1.01924868 11.5992487,0.97 11.66,0.97 L13.46,0.97 C13.5207513,0.97 13.57,1.01924868 13.57,1.08 L13.57,8.49 C13.6211594,10.2503352 12.8885684,11.9426205 11.57,13.11 C10.3639726,14.123814 8.83548039,14.6735037 7.26,14.66 C5.7016863,14.6616356 4.19289954,14.1126639 3,13.11 C1.68143165,11.9426205 0.948840637,10.2503352 1,8.49 L1,2.05 C1.01274663,1.75464204 1.15552871,1.48006113 1.39,1.3 C1.70428774,1.08573296 2.0801299,0.980356652 2.46,1 L2.91,1 C2.97075132,1 3.02,1.04924868 3.02,1.11 L3.02,8.52 C2.98324373,9.60693864 3.37879369,10.6641358 4.12,11.46 C4.9673457,12.2844085 6.10791336,12.7377572 7.29,12.72 C8.4212033,12.7411331 9.51707507,12.3257046 10.35,11.56 C11.1676306,10.7527021 11.6069515,9.63806151 11.56,8.49 L11.55,8.46 Z M20.7,5.23 C20.7127466,4.93464204 20.8555287,4.66006113 21.09,4.48 C21.4005633,4.25510811 21.7767154,4.13909858 22.16,4.15 L22.61,4.15 C22.6707513,4.15 22.72,4.19924868 22.72,4.26 L22.72,14.43 C22.72,14.4907513 22.6707513,14.54 22.61,14.54 L20.81,14.54 C20.7492487,14.54 20.7,14.4907513 20.7,14.43 L20.7,5.23 Z M15.46,2.81 L15.46,1.08 C15.46,1.01924868 15.5092487,0.97 15.57,0.97 L27.86,0.97 C27.9207513,0.97 27.97,1.01924868 27.97,1.08 L27.97,2.83 C27.97,2.89075132 27.9207513,2.94 27.86,2.94 L15.58,2.94 C15.5229489,2.94023619 15.475186,2.89681541 15.47,2.84 L15.46,2.81 Z M54.93,7 L54.93,14.41 C54.93,14.4707513 54.9792487,14.52 55.04,14.52 L56.84,14.52 C56.9007513,14.52 56.95,14.4707513 56.95,14.41 L56.95,7 C57.0011594,5.23966475 56.2685684,3.54737952 54.95,2.38 C52.4496859,0.319904306 48.8403141,0.319904306 46.34,2.38 C45.0214316,3.54737952 44.2888406,5.23966475 44.34,7 L44.34,14.41 C44.34,14.4707513 44.3892487,14.52 44.45,14.52 L44.9,14.52 C45.2899537,14.5463811 45.6774334,14.4407048 46,14.22 C46.2344713,14.0399389 46.3772534,13.765358 46.39,13.47 L46.39,7 C46.3532437,5.91306136 46.7487937,4.8558642 47.49,4.06 C48.3373457,3.23559147 49.4779134,2.78224281 50.66,2.8 C51.7967168,2.78969814 52.8933096,3.21973451 53.72,4 C54.5184541,4.79123338 54.9560621,5.87621175 54.93,7 L54.93,7 Z" id="Shape"></path>
                <path d="M66.23,2.68 C63.9385126,2.66603639 61.9665993,4.29665707 61.55,6.55 C61.5376186,6.60854396 61.4893976,6.65274652 61.43,6.66 L59.58,6.66 C59.5516512,6.66014214 59.5245743,6.6482452 59.5055046,6.62726854 C59.4864349,6.60629188 59.4771647,6.578207 59.48,6.55 C59.6523662,5.286004 60.1793921,4.09672854 61,3.12 C62.2977329,1.5648391 64.2351658,0.688205924 66.26,0.74 C67.385255,0.719641513 68.4981484,0.977255715 69.5,1.49 C69.5293101,1.51059704 69.5467544,1.54417655 69.5467544,1.58 C69.5467544,1.61582345 69.5293101,1.64940296 69.5,1.67 L68.19,3 C68.1513019,3.02834507 68.0986981,3.02834507 68.06,3 C67.4803316,2.75843571 66.8579752,2.63600493 66.23,2.64" id="Shape"></path>
            </g>
        </g>
    </g>
</svg>