<?xml version="1.0" encoding="UTF-8"?>
<svg width="79px" height="15px" viewBox="0 0 79 15" version="1.1" xmlns="http://www.w3.org/2000/svg" xmlns:xlink="http://www.w3.org/1999/xlink">
    <!-- Generator: Sketch 41.2 (35397) - http://www.bohemiancoding.com/sketch -->
    <title>XY BID_BnG</title>
    <desc>Created with Sketch.</desc>
    <defs></defs>
    <g id="Page-1" stroke="none" stroke-width="1" fill="none" fill-rule="evenodd">
        <g id="XY-BID_BnG" fill="#333333">
            <g id="Layer_1">
                <g id="_Group_">
                    <g id="_Group_2">
                        <g id="_Group_3" transform="translate(39.000000, 0.000000)">
                            <path d="M12.5,9.65 C12.5323135,10.7634513 12.1145692,11.8429467 11.3411487,12.6445942 C10.5677283,13.4462417 9.5038941,13.9023969 8.39,13.91 L0.88,13.91 L0.88,0.61 L8,0.61 C9.06998505,0.579290284 10.1053413,0.990848169 10.8622466,1.74775341 C11.6191518,2.50465866 12.0307097,3.54001495 12,4.61 C12.0051385,5.39389405 11.8161877,6.16687458 11.45,6.86 C12.1230305,7.63412421 12.4956482,8.6242225 12.5,9.65 L12.5,9.65 Z M4.07,5.8 L7.81,5.8 C8.46597485,5.71848001 8.95844506,5.16102081 8.95844506,4.5 C8.95844506,3.83897919 8.46597485,3.28151999 7.81,3.2 L4.07,3.2 L4.07,5.8 Z M9.57,9.8 C9.58902721,9.43779695 9.46041395,9.08335158 9.21354038,8.8176327 C8.96666681,8.55191382 8.6226224,8.39762078 8.26,8.39 L4.07,8.39 L4.07,11.21 L8.26,11.21 C9.00329931,11.1828467 9.58690305,10.563603 9.57,9.82 L9.57,9.8 Z" id="_Compound_Path_"></path>
                        </g>
                        <g id="_Group_4" transform="translate(56.000000, 0.000000)">
                            <polygon id="_Compound_Path_2" points="3.89 0.62 3.89 13.92 0.69 13.92 0.69 0.62"></polygon>
                        </g>
                        <g id="_Group_5" transform="translate(65.000000, 0.000000)">
                            <path d="M13.5,7.24 C13.5053148,9.00715236 12.8070387,10.7037485 11.5593453,11.9551944 C10.3116519,13.2066402 8.61716035,13.910008 6.85,13.91 L0.55,13.91 L0.55,0.61 L6.85,0.61 C8.63095196,0.539174058 10.3607654,1.21423217 11.6229807,2.47265132 C12.885196,3.73107047 13.5654613,5.45884279 13.5,7.24 Z M10.31,7.24 C10.3506652,6.36554124 10.0411514,5.51093222 9.44995958,4.86531317 C8.85876772,4.21969412 8.03465058,3.8363062 7.16,3.8 L3.74,3.8 L3.74,10.72 L7.16,10.72 C8.97559528,10.5970952 10.367994,9.05882613 10.31,7.24 Z" id="_Compound_Path_3"></path>
                        </g>
                        <g id="_Group_6">
                            <polygon id="_Compound_Path_4" points="9.37 7.28 13.89 11.84 11.46 14.27 7 9.74 2.4 14.26 0 11.83 4.56 7.25 0 2.74 2.4 0.31 7 4.81 11.48 0.27 13.9 2.7"></polygon>
                        </g>
                        <g id="_Group_7" transform="translate(15.000000, 0.000000)">
                            <polygon id="_Compound_Path_5" points="15.63 0.62 10 8.31 10 13.92 6 13.92 6 8.31 0.39 0.62 4.39 0.62 8.01 5.45 11.61 0.62"></polygon>
                        </g>
                    </g>
                </g>
            </g>
        </g>
    </g>
</svg>