<?xml version="1.0" encoding="UTF-8"?>
<svg width="79px" height="15px" viewBox="0 0 79 15" version="1.1" xmlns="http://www.w3.org/2000/svg" xmlns:xlink="http://www.w3.org/1999/xlink">
    <!-- Generator: Sketch 41.2 (35397) - http://www.bohemiancoding.com/sketch -->
    <title>XY BID</title>
    <desc>Created with Sketch.</desc>
    <defs></defs>
    <g id="Page-1" stroke="none" stroke-width="1" fill="none" fill-rule="evenodd">
        <g id="XY-BID" fill="#00C0F1">
            <g id="Layer_1">
                <path d="M51.5,9.65 C51.5323135,10.7634513 51.1145692,11.8429467 50.3411487,12.6445942 C49.5677283,13.4462417 48.5038941,13.9023969 47.39,13.91 L39.88,13.91 L39.88,0.61 L47,0.61 C48.0699851,0.579290284 49.1053413,0.990848169 49.8622466,1.74775341 C50.6191518,2.50465866 51.0307097,3.54001495 51,4.61 C51.0051385,5.39389405 50.8161877,6.16687458 50.45,6.86 C51.1230305,7.63412421 51.4956482,8.6242225 51.5,9.65 L51.5,9.65 Z M43.07,5.8 L46.81,5.8 C47.4659749,5.71848001 47.9584451,5.16102081 47.9584451,4.5 C47.9584451,3.83897919 47.4659749,3.28151999 46.81,3.2 L43.07,3.2 L43.07,5.8 Z M48.57,9.8 C48.5890272,9.43779695 48.460414,9.08335158 48.2135404,8.8176327 C47.9666668,8.55191382 47.6226224,8.39762078 47.26,8.39 L43.07,8.39 L43.07,11.21 L47.26,11.21 C48.0032993,11.1828467 48.586903,10.563603 48.57,9.82 L48.57,9.8 Z" id="_Compound_Path_"></path>
                <polygon id="_Compound_Path_2" points="59.89 0.62 59.89 13.92 56.69 13.92 56.69 0.62"></polygon>
                <path d="M78.5,7.24 C78.5053148,9.00715236 77.8070387,10.7037485 76.5593453,11.9551944 C75.3116519,13.2066402 73.6171604,13.910008 71.85,13.91 L65.55,13.91 L65.55,0.61 L71.85,0.61 C73.630952,0.539174058 75.3607654,1.21423217 76.6229807,2.47265132 C77.885196,3.73107047 78.5654613,5.45884279 78.5,7.24 Z M75.31,7.24 C75.3506652,6.36554124 75.0411514,5.51093222 74.4499596,4.86531317 C73.8587677,4.21969412 73.0346506,3.8363062 72.16,3.8 L68.74,3.8 L68.74,10.72 L72.16,10.72 C73.9755953,10.5970952 75.367994,9.05882613 75.31,7.24 Z" id="_Compound_Path_3"></path>
                <polygon id="_Compound_Path_4" points="9.37 7.28 13.89 11.84 11.46 14.27 7 9.74 2.4 14.26 0 11.83 4.56 7.25 0 2.74 2.4 0.31 7 4.81 11.48 0.27 13.9 2.7"></polygon>
                <polygon id="_Compound_Path_5" points="30.63 0.62 25 8.31 25 13.92 21 13.92 21 8.31 15.39 0.62 19.39 0.62 23.01 5.45 26.61 0.62"></polygon>
            </g>
        </g>
    </g>
</svg>